<svg xmlns="http://www.w3.org/2000/svg" width="57" height="18" viewBox="0 0 57 18">
  <g fill="none" transform="translate(.791)">
    <path fill="#EE7F00" d="M18.6373425,0.069619042 C17.8694365,0.069619042 17.1247863,0.246292677 16.4253536,0.575988967 C15.4265684,1.0495732 14.5204949,1.83928427 13.7808833,2.88728616 C13.300448,3.56763825 12.8890971,4.35626675 12.5671088,5.23828849 C11.9599154,6.90319655 11.9667086,8.25366533 12.5874833,9.14361808 C12.9394636,9.64665952 13.6711672,10.2476647 15.1588771,10.2493641 L15.1645797,10.2493641 C17.8746002,10.2493641 19.897553,8.47115522 21.1787153,4.96402775 C21.5171136,4.0361208 21.9636159,2.30432485 21.1476106,1.13566062 C20.6547254,0.429250127 19.8115503,0.0707517438 18.6373404,0.069619042 L18.6373425,0.069619042 Z M34.9892124,0.069619042 C34.2218725,0.069619042 33.476634,0.246292677 32.7777673,0.575988967 C31.7784154,1.0495732 30.8730443,1.83928427 30.1334326,2.88728616 C29.6524312,3.56763825 29.2415101,4.35626675 28.9195223,5.23828849 C28.3117622,6.90319655 28.3190991,8.25366533 28.94044,9.14361808 C29.2918536,9.64665952 30.0229919,10.2476647 31.5118339,10.2493641 L31.5164517,10.2493641 C34.2270383,10.2493641 36.2505571,8.47115522 37.5305879,4.96402775 C37.8701178,4.0361208 38.3154656,2.30432485 37.5000258,1.13566062 C37.0065751,0.429250127 36.1634223,0.0707517438 34.9892124,0.069619042 Z M9.93404803,0.210624753 C9.04221454,0.210624753 8.17585741,0.210555134 7.3994642,0.604815427 C6.62363639,0.999091733 5.9383205,1.78822636 5.41091596,3.3664615 C5.29660786,3.70578819 5.23614696,3.99814152 5.2282251,4.25192869 C5.22030533,4.50628186 5.26445867,4.72265227 5.36065868,4.91072602 C5.47949414,5.14015349 5.67189833,5.35599828 5.91239975,5.53784113 C6.15346656,5.72024998 6.44142817,5.86815842 6.75209964,5.96276234 C6.76398277,5.96615975 6.92702791,6.01258103 7.12508818,6.06923005 C7.32201557,6.12587906 7.5522918,6.19378896 7.6982894,6.23797477 C7.78373778,6.26403318 7.87759551,6.29805948 7.96247849,6.34961029 C8.04792686,6.40002771 8.12437196,6.46796545 8.17247127,6.56200268 C8.20416147,6.6243159 8.22116657,6.69288787 8.22286416,6.76596419 C8.22512437,6.83960791 8.2126056,6.91899241 8.18374518,7.00283254 C8.11131282,7.2169647 8.00152514,7.3551766 7.79214783,7.43958342 C7.58390202,7.52398955 7.27665911,7.55108249 6.81037058,7.55448199 L0.989655988,7.55448199 L0.0695448561,10.0849706 L6.29992176,10.0849706 C6.88617795,10.0849706 7.95794764,10.0850402 8.98785758,9.64658851 C10.0177668,9.20869309 11.0059123,8.33345781 11.4241008,6.58131082 C11.5814168,5.92305164 11.532709,5.38658331 11.2752317,4.9651159 C11.0166222,4.54421518 10.5492015,4.23837316 9.8684422,4.04293511 C9.8684422,4.04293511 9.71626693,3.99862328 9.53688153,3.94707317 C9.35862764,3.89552305 9.15206203,3.83665806 9.04680797,3.80606746 C8.87251535,3.75621674 8.73837306,3.65536869 8.65914965,3.52677535 C8.58049163,3.39874942 8.55671703,3.24295384 8.60142185,3.0837699 C8.64838967,2.91835575 8.76158713,2.78635874 8.92456133,2.69515431 C9.08866772,2.6045152 9.30369485,2.55469233 9.5549472,2.55469233 L13.1765767,2.55469233 C13.2020413,2.51787082 13.2252755,2.47770272 13.2507401,2.44088121 C13.9122584,1.50390985 14.7130159,0.7459562 15.5901365,0.210624753 L9.93404803,0.210624753 Z M26.2122982,0.210624753 C24.6006595,0.210624753 23.4009335,1.0268746 22.834483,2.55469233 L20.0966975,10.0849706 L23.095955,10.0849706 L24.5027445,6.21417898 L27.1533271,6.2159473 L27.9075897,4.14260521 L25.2655646,4.14083689 L25.6911193,2.94045283 C25.7793968,2.72518727 25.9915691,2.5541486 26.3016745,2.5541486 C26.4742688,2.5541486 28.4202744,2.55470556 29.4269821,2.55523466 C29.4530134,2.51784715 29.476224,2.47770133 29.5016886,2.44087981 C30.1632069,1.50390846 31.0997946,0.745954807 31.9769152,0.210623361 L26.2122982,0.210623361 L26.2122982,0.210624753 Z M40.1262955,0.216062001 L36.5345477,10.091088 L39.5852852,10.091088 L40.890745,6.61516726 C40.9546901,6.7584885 41.7248758,10.091088 41.7248758,10.091088 L44.932361,10.091088 C44.932361,10.091088 44.3489618,7.64219224 43.9200216,6.65310407 C43.8096748,6.3987509 43.6947046,6.11382035 43.5407845,5.87532918 C44.4467655,5.53826859 45.7596124,4.81485364 46.3034267,3.34878313 C46.6372984,2.44750128 46.6181416,1.71894427 46.2469215,1.18474622 C45.7970428,0.536116749 44.8814431,0.217762098 43.446926,0.216062001 L40.1262955,0.216062001 Z M46.3837024,0.216201239 C46.5766692,0.369152882 46.7430121,0.543563202 46.881654,0.742966758 C47.2364635,1.2550726 47.3722387,1.8636015 47.291317,2.5609483 L49.1079044,2.5609483 L46.3701196,10.0935386 L49.1055955,10.0935386 L51.8450112,2.5609483 L55.3597429,2.5609483 L56.2124824,0.216201239 L46.3837024,0.216201239 Z M42.1363045,2.25486957 L42.6399616,2.25486957 C43.5606541,2.25549614 43.9040666,2.5250917 43.5922643,3.36632644 C43.2997016,4.15601105 42.7734425,4.64380871 41.7729598,4.64380871 L41.7690235,4.64380871 L41.2512405,4.64325175 L42.1363073,2.25485634 L42.1363045,2.25486957 Z M17.9175803,2.30382011 L17.9181367,2.30382011 C18.8552404,2.3049549 19.0697759,2.84882651 18.2469802,5.10231554 L18.2468411,5.10231554 C17.4014094,7.41868518 16.788046,8.00156782 15.8645223,8.00156782 L15.8627558,8.00156782 C14.9630005,8.00101087 14.6473239,7.43103768 15.4893598,5.12543115 C16.1180578,3.40444077 16.9323842,2.30382011 17.9175894,2.30382011 L17.9175803,2.30382011 Z M34.2694502,2.30382011 L34.2705351,2.30382011 C35.2070734,2.3049549 35.4220616,2.84882651 34.5986999,5.10231554 C33.7538342,7.41868518 33.1398825,8.00156782 32.2169249,8.00156782 L32.2147551,8.00156782 C31.314433,8.00101087 31.0002961,7.43103768 31.8417666,5.12543115 C32.4698978,3.40444077 33.2848133,2.30382011 34.2694523,2.30382011 L34.2694502,2.30382011 Z"/>
    <path fill="#383A41" d="M3.03566009,11.1314318 C2.84382478,11.1314318 2.70005748,11.1664996 2.60385747,11.2350444 C2.50822286,11.3052893 2.42783596,11.4293985 2.36275936,11.6089753 C2.29994645,11.7811877 2.29039099,11.9006498 2.33396362,11.9686279 C2.37753695,12.0371734 2.49571591,12.0711531 2.69038101,12.0711531 C2.88447861,12.0711531 3.029424,12.0360623 3.12449321,11.9646847 C3.21956173,11.8938738 3.29933663,11.7703543 3.36328173,11.5936096 C3.42666074,11.4191318 3.4373943,11.299057 3.39438637,11.2316456 C3.35251132,11.1647995 3.23258748,11.1314318 3.03566009,11.1314318 Z M4.68965931,11.1314318 C4.49499491,11.1314318 4.35072967,11.1664996 4.25622656,11.2350444 C4.16115805,11.3052893 4.08142765,11.4293985 4.01635105,11.6089753 C3.95410423,11.7811877 3.94391521,11.9006498 3.98578956,11.9686279 C4.0282314,12.0371734 4.14591242,12.0711531 4.34057682,12.0711531 C4.53467512,12.0711531 4.67955236,12.0360623 4.77631916,11.9646847 C4.87251986,11.8938738 4.95277045,11.7703543 5.01728095,11.5936096 C5.08065996,11.4191318 5.09032947,11.299057 5.04675614,11.2316456 C5.00261672,11.1647995 4.88375761,11.1314318 4.68965931,11.1314318 Z M35.566217,12.4159846 C35.3409953,12.4159846 35.1181311,12.4449551 34.8963046,12.5027369 C34.6744774,12.5610853 34.4684167,12.6488568 34.2782789,12.7661196 C34.0875758,12.8839491 33.9173363,13.0312477 33.7651144,13.2091251 C33.6134565,13.3875691 33.4950968,13.5943718 33.4096477,13.8288982 C33.334951,14.0339666 33.3016431,14.2089436 33.3089975,14.3556637 C33.3157851,14.5018177 33.3485087,14.6293271 33.406795,14.7363928 C33.4645144,14.8440259 33.5415054,14.9357873 33.6377054,15.0128298 C33.7333407,15.0898717 33.8351934,15.1589198 33.9444094,15.2189669 C34.0536254,15.2795815 34.1600075,15.3379744 34.2646961,15.3917913 C34.3682526,15.4461736 34.4577429,15.503933 34.5318736,15.5662462 C34.6071357,15.6279934 34.6596483,15.698787 34.6913378,15.7780949 C34.7230273,15.8579702 34.7186112,15.953154 34.6784338,16.064186 C34.6433491,16.1599226 34.5940522,16.2472179 34.5301078,16.3253931 C34.4661627,16.4041351 34.3908936,16.4698728 34.3054452,16.5225564 C34.2188654,16.5758066 34.1232155,16.6171303 34.0162631,16.6460215 C33.9098769,16.6749128 33.7961585,16.6896692 33.6750587,16.6896692 C33.4905805,16.6896692 33.3361026,16.6686331 33.2116076,16.6267134 C33.0871139,16.5853597 32.9830401,16.5389802 32.9004215,16.4885628 C32.8183683,16.4381454 32.7521352,16.3921968 32.7034684,16.3502764 C32.6536708,16.3089227 32.611167,16.2880001 32.575517,16.2880001 C32.5506178,16.2880001 32.5263654,16.2947809 32.5020331,16.3089401 C32.4782647,16.322536 32.4544665,16.3457031 32.4312656,16.3785591 C32.4080648,16.4114158 32.3842881,16.4544856 32.359955,16.5077352 C32.335622,16.5604187 32.3084946,16.6267461 32.2807664,16.7043546 C32.2383245,16.8210515 32.2127786,16.9099334 32.2042942,16.9716806 C32.1952401,17.0334278 32.2021035,17.0810542 32.2230386,17.1139102 C32.242845,17.1467669 32.2835802,17.1846683 32.3424325,17.2277214 C32.4007187,17.2702078 32.4787502,17.3115545 32.575517,17.3506421 C32.6722831,17.3897297 32.7882887,17.4232339 32.9229693,17.4509917 C33.058216,17.4787495 33.2104295,17.492328 33.3796293,17.492328 C33.6291841,17.492328 33.876028,17.4594365 34.1193585,17.3942905 C34.362689,17.3285778 34.5901494,17.230605 34.8012236,17.1003129 C35.0128646,16.9705876 35.2012421,16.8085312 35.3681776,16.6136598 C35.5345477,16.4193545 35.6647509,16.1933056 35.7586879,15.9355537 C35.8299895,15.7384162 35.8622319,15.5674061 35.8543121,15.4223854 C35.8463896,15.2773641 35.8129447,15.1504904 35.7535263,15.0434239 C35.6941093,14.9357908 35.6155111,14.8440524 35.5170467,14.7664432 C35.4191484,14.6899673 35.3149403,14.6207841 35.205725,14.5601696 C35.097075,14.4995558 34.989108,14.442409 34.8827218,14.3880261 C34.7763356,14.3336432 34.6846274,14.2751813 34.6076663,14.2134341 C34.5301405,14.1516868 34.4763142,14.080894 34.4457576,14.0015854 C34.4157649,13.9222775 34.4202708,13.8276603 34.4598835,13.7188945 C34.4864802,13.6458175 34.5250888,13.5767241 34.5760179,13.5104453 C34.6258154,13.4447326 34.6863216,13.3886963 34.7576224,13.3422443 C34.828924,13.2957924 34.9092657,13.2590015 34.9998068,13.2323771 C35.090348,13.205752 35.1899828,13.192672 35.2986327,13.192672 C35.4372739,13.192672 35.5589642,13.209107 35.6625206,13.2436631 C35.7660771,13.2776518 35.8542544,13.3149871 35.9272528,13.3574735 C36.0002527,13.3988272 36.060779,13.4373634 36.1083143,13.4730523 C36.1564136,13.5087411 36.1944338,13.5258103 36.2215959,13.5258103 C36.2498902,13.5258103 36.2742323,13.5183979 36.2963024,13.5031026 C36.3183717,13.4878073 36.3398833,13.4640282 36.3608219,13.4311722 C36.381193,13.3983155 36.4020265,13.3563568 36.4246613,13.3059394 C36.4467307,13.256088 36.4716848,13.1938186 36.4982815,13.1207416 C36.5220491,13.0550289 36.5406844,12.9995599 36.5536997,12.9559401 C36.5678472,12.9111876 36.5763365,12.8748277 36.580866,12.8459372 C36.5848301,12.8170459 36.5859776,12.7933351 36.5837173,12.7757737 C36.5808869,12.758213 36.571853,12.736111 36.5560086,12.711186 C36.5401635,12.6862603 36.4999019,12.6545022 36.4353914,12.6165473 C36.3703148,12.5785931 36.2933697,12.5446127 36.2033939,12.5140228 C36.1139836,12.4839989 36.0139203,12.4601968 35.9047043,12.4426361 C35.7943568,12.424508 35.6816573,12.4159846 35.5662163,12.4159846 L35.566217,12.4159846 Z M51.2829469,12.4192497 C50.897014,12.4192497 50.5258316,12.4786863 50.1681923,12.5976485 C49.8105537,12.7166107 49.4806503,12.8870542 49.1767705,13.1108167 C48.8740223,13.33458 48.6029719,13.6059418 48.3658664,13.9254417 C48.1287608,14.2455069 47.9374631,14.6058877 47.7908987,15.0075276 C47.6499932,15.3961384 47.5798377,15.7445281 47.5826717,16.0509973 C47.5838053,16.358034 47.6534343,16.6186292 47.7898124,16.8316287 C47.9267567,17.0451942 48.129263,17.2077261 48.398058,17.3204574 C48.6657215,17.432622 48.9956013,17.4886584 49.3866277,17.4886584 C49.5207422,17.4886584 49.6560862,17.4824902 49.7930304,17.4700297 C49.9299733,17.4570005 50.0679684,17.4382535 50.2071749,17.4133278 C50.346949,17.3878361 50.4828591,17.3577781 50.6169736,17.3220893 C50.7510887,17.2864005 50.8647848,17.2531003 50.9587212,17.2202443 C51.0526582,17.1868216 51.123354,17.1420057 51.1708879,17.0853574 C51.2172903,17.0287084 51.2552416,16.9624714 51.2824038,16.8865623 L51.991979,14.9355973 C52.0100871,14.8846131 52.0203234,14.839798 52.0214542,14.8007104 C52.0231511,14.7616227 52.0175388,14.728255 52.0033885,14.7004972 C51.989241,14.6727394 51.9694047,14.6516804 51.9428087,14.6380845 C51.916212,14.6239225 51.8827435,14.6166007 51.842566,14.6166007 L50.1885668,14.6166007 C50.1659314,14.6166007 50.1432869,14.6239225 50.1206514,14.6380845 C50.0980166,14.6516804 50.0754173,14.6732156 50.0516504,14.7026728 C50.0290149,14.7315633 50.0051937,14.7695329 49.9814261,14.8182509 C49.9576591,14.8658362 49.932728,14.9253173 49.9072627,14.9955622 C49.8574651,15.1326519 49.8348193,15.2289475 49.839348,15.2855958 C49.8444387,15.3428116 49.8693274,15.3711242 49.9145976,15.3711242 L50.8421793,15.3711242 L50.4284416,16.5076008 C50.3169626,16.5580182 50.2020891,16.5959195 50.0843851,16.6214112 C49.9672466,16.6463369 49.8524642,16.6593487 49.7415506,16.6593487 C49.5140659,16.6593487 49.3198466,16.6225578 49.1585692,16.5494808 C48.9972919,16.4758371 48.875738,16.3675962 48.794817,16.2231416 C48.7133299,16.0798203 48.6742276,15.9008089 48.6770525,15.6878094 C48.6804463,15.4742433 48.7330278,15.2267281 48.8348866,14.9468832 C48.9276928,14.6913973 49.0493588,14.4585711 49.1993184,14.247837 C49.3487118,14.0371036 49.5190634,13.8563921 49.7097665,13.7057059 C49.901035,13.555587 50.107618,13.4394799 50.3288784,13.3573391 C50.5507057,13.2757651 50.7798866,13.2344177 51.0169928,13.2344177 C51.2388186,13.2344177 51.4254972,13.2570863 51.5771544,13.3024055 C51.7276793,13.3477241 51.8545097,13.3975267 51.9569346,13.4502096 C52.0582274,13.5034598 52.1375058,13.552695 52.1940937,13.5980143 C52.2506824,13.6433335 52.2953142,13.6660014 52.3287006,13.6660014 C52.3507706,13.6660014 52.3728261,13.6598332 52.3937633,13.6473728 C52.4152672,13.6343436 52.436847,13.6121741 52.4600486,13.5810175 C52.482684,13.5492942 52.5064378,13.5068593 52.5319023,13.453609 C52.5579329,13.4009255 52.5839511,13.337976 52.6105478,13.2643323 C52.6563848,13.1380057 52.6835831,13.042957 52.6915022,12.9783776 C52.7005562,12.9143643 52.6936928,12.8644941 52.6727578,12.8288053 C52.6512545,12.7931165 52.6065997,12.7517245 52.5386941,12.7035725 C52.4702223,12.6559879 52.3779689,12.6107195 52.2630947,12.5693658 C52.1487866,12.5274454 52.0095029,12.4923323 51.8459619,12.4634418 C51.6824216,12.4339839 51.4945879,12.4192497 51.2829469,12.4192497 Z M20.3432284,12.4797584 C20.2142067,12.4797584 20.1129654,12.4831558 20.038834,12.4899562 C19.9647034,12.4961871 19.9069833,12.5131888 19.8651075,12.5409473 C19.8232332,12.5687051 19.7944291,12.6083517 19.778584,12.6604685 C19.7621735,12.7120194 19.7491303,12.7834241 19.7383787,12.8746286 L19.2958453,17.1515769 C19.2884923,17.2127574 19.2901844,17.2609283 19.2992391,17.2977498 C19.3088592,17.3340046 19.3353983,17.3617053 19.3789716,17.3809661 C19.4225449,17.3996602 19.4865596,17.412672 19.5714425,17.4189029 C19.6563241,17.4251338 19.7718103,17.4280133 19.9178086,17.4280133 C20.0570152,17.4280133 20.1695805,17.425131 20.2561603,17.4189029 C20.3427409,17.412672 20.4151336,17.399184 20.4717223,17.3787905 C20.5277448,17.3589637 20.5741869,17.3306281 20.6104044,17.2938065 C20.6460545,17.257551 20.6811754,17.2099253 20.7151293,17.1515769 L22.5864562,14.0449629 L22.593791,14.0449629 L22.2481044,17.1515769 C22.2384836,17.2127574 22.2384836,17.2609283 22.2481044,17.2977498 C22.2571585,17.3340046 22.2837197,17.3617053 22.3272931,17.3809661 C22.3708657,17.3996602 22.4347461,17.412672 22.5196277,17.4189029 C22.6045107,17.4251338 22.718864,17.4280133 22.8625979,17.4280133 C22.9910549,17.4280133 23.0985233,17.425131 23.1839716,17.4189029 C23.2694207,17.412672 23.342424,17.3996602 23.4018425,17.3809661 C23.4618256,17.3617053 23.5122095,17.3340046 23.5512554,17.2977498 C23.5914329,17.2609283 23.6304719,17.2127574 23.6672542,17.1515769 L26.3422859,12.8859145 C26.3988746,12.7924447 26.4389999,12.7182287 26.4627668,12.6644118 C26.4859649,12.6094628 26.4887314,12.5687051 26.4711887,12.5409473 C26.4530806,12.5131895 26.4152871,12.4961885 26.3558687,12.4899562 C26.2958856,12.4831614 26.210449,12.4797584 26.1001015,12.4797584 C25.981266,12.4797584 25.8877908,12.4831558 25.8198844,12.4899562 C25.751978,12.4961871 25.697112,12.5075218 25.6558024,12.5239505 C25.6150581,12.5403785 25.5822698,12.5630464 25.5596351,12.5919376 C25.5364335,12.6213949 25.5132459,12.6558737 25.4911765,12.696094 L23.2711739,16.4394772 L23.2638397,16.4394772 L23.6956424,12.7109152 C23.7035621,12.6610645 23.704583,12.6202162 23.6983616,12.5896263 C23.691567,12.5601684 23.6718483,12.5364353 23.6384612,12.5200073 C23.6050741,12.5035786 23.5540553,12.4927437 23.4838866,12.4876448 C23.4131505,12.4825487 23.3181132,12.4797584 23.1970141,12.4797584 C23.0832714,12.4797584 22.9910417,12.4831558 22.9208723,12.4899562 C22.8501362,12.4961871 22.7923945,12.5075218 22.7476889,12.5239505 C22.702418,12.5403785 22.6661879,12.5635456 22.6390251,12.5935695 C22.6112969,12.6241594 22.5841688,12.6638966 22.5564406,12.7109152 L20.3081861,16.4394772 L20.3042499,16.4394772 L20.8102159,12.6848081 C20.8204014,12.6366567 20.8236658,12.5997976 20.8202672,12.5731732 C20.8174367,12.5465481 20.8011103,12.5262597 20.770553,12.5126645 C20.739995,12.4985019 20.6913547,12.4899792 20.6234497,12.486013 C20.5549772,12.4820516 20.4620687,12.4797612 20.3432326,12.4797612 L20.3432284,12.4797584 Z M32.1539013,12.4800369 C32.0577006,12.4800369 31.9766801,12.4839564 31.9110374,12.4913228 C31.8453947,12.4992531 31.790528,12.5094537 31.7469547,12.5219169 C31.7033827,12.5343794 31.669529,12.5508819 31.645762,12.5712754 C31.6219951,12.5916689 31.6055324,12.6143376 31.5959123,12.6392633 L29.912981,17.2690653 C29.903927,17.294557 29.9033616,17.3173392 29.912981,17.3377327 C29.921469,17.3575595 29.9423477,17.3739485 29.9757348,17.3864117 C30.009688,17.3994409 30.0566739,17.4096415 30.118356,17.4170058 C30.1794706,17.4243701 30.2586572,17.4282917 30.3542918,17.4282917 C30.4527555,17.4282917 30.5348866,17.4243722 30.6010947,17.4170058 C30.6667374,17.4096415 30.7209928,17.3994409 30.7628678,17.3864117 C30.8058758,17.3739485 30.8387767,17.3575595 30.8631105,17.3377327 C30.8863113,17.3173392 30.9026836,17.294557 30.9117376,17.2690653 L32.5952121,12.6392633 C32.6048746,12.6143376 32.6048092,12.5916689 32.5957684,12.5712754 C32.5867137,12.5508819 32.5653161,12.5343794 32.5319283,12.5219169 C32.499108,12.5094544 32.452143,12.4992531 32.3921599,12.4913228 C32.3316099,12.4839585 32.2518121,12.4800369 32.1539145,12.4800369 L32.1539013,12.4800369 Z M1.87553784,12.4801761 C1.77707345,12.4801761 1.69507937,12.4842349 1.62887127,12.4915978 C1.56322858,12.4995288 1.50822555,12.5097294 1.46465292,12.5221919 C1.42107959,12.5346551 1.38770293,12.5510218 1.36563287,12.5714153 C1.34299741,12.5912422 1.327169,12.6139108 1.31754886,12.6394025 L0.233898824,15.6213274 C0.120156821,15.934595 0.06528732,16.2077258 0.0698167765,16.4411188 C0.0749074599,16.6750784 0.132562232,16.869867 0.24517274,17.0262181 C0.357218544,17.1831352 0.521909109,17.2998543 0.738642175,17.3768969 C0.954810538,17.4539387 1.21739175,17.4924749 1.52523275,17.4924749 C1.85344622,17.4924749 2.15898389,17.4493828 2.44249115,17.3638433 C2.7259998,17.2777371 2.98353205,17.1532422 3.21441193,16.9889608 C3.4458593,16.825246 3.64904503,16.6241103 3.82333695,16.3861852 C3.99819567,16.1488267 4.14021948,15.8802525 4.2494355,15.5794474 L5.31841574,12.6394025 C5.32803031,12.6139108 5.32796494,12.5912422 5.32004309,12.5714153 C5.31268663,12.5510211 5.29230651,12.5346551 5.25891942,12.5221919 C5.22553163,12.5097294 5.17979128,12.4995281 5.12037285,12.4915978 C5.06152191,12.4842335 4.98389734,12.4801761 4.88769663,12.4801761 C4.79206203,12.4801761 4.71067924,12.4842349 4.64333896,12.4915978 C4.57656477,12.4995288 4.52212784,12.5097294 4.4791206,12.5221919 C4.43668016,12.5346551 4.40450176,12.5510218 4.3818663,12.5714153 C4.35923084,12.5912422 4.34394696,12.6139108 4.33432613,12.6394025 L3.26140687,15.5908691 C3.19915935,15.7625148 3.11931629,15.9160248 3.02424778,16.0514151 C2.92804708,16.186806 2.82051056,16.2999891 2.701109,16.3917603 C2.58170674,16.4840974 2.45166203,16.5538028 2.31019041,16.6025208 C2.16985167,16.6501054 2.02098812,16.6744512 1.86480428,16.6744512 C1.71031734,16.6744512 1.57952572,16.651307 1.47144119,16.6042884 C1.36392345,16.5572698 1.28242662,16.4875422 1.22640476,16.3940716 C1.17094761,16.3006011 1.14501781,16.1827709 1.14898186,16.0394496 C1.15294592,15.8972611 1.19030542,15.7284955 1.26104088,15.5336234 L2.31358628,12.6394025 C2.32264033,12.6139108 2.32264033,12.5912422 2.31358628,12.5714153 C2.30453224,12.5510211 2.28354012,12.5346551 2.25015372,12.5221919 C2.21676593,12.5097294 2.16982594,12.4995281 2.10984141,12.4915978 C2.04929218,12.4842335 1.97116966,12.4801761 1.87553506,12.4801761 L1.87553784,12.4801761 Z M38.594271,12.4803153 C38.4958073,12.4803153 38.4138125,12.4842349 38.3476037,12.4916013 C38.2819617,12.4989656 38.227095,12.5091891 38.1835216,12.5216517 C38.1399483,12.5346809 38.1064576,12.5511834 38.0838228,12.5710109 C38.0611867,12.5914044 38.0459021,12.61405 38.036282,12.6395418 L36.9526319,15.6209229 C36.8388885,15.9341905 36.7839989,16.2078651 36.789093,16.441258 C36.7930571,16.6752177 36.8513169,16.8700069 36.9633627,17.0263573 C37.0759732,17.1832745 37.2402117,17.2999936 37.4575116,17.3770361 C37.6736786,17.4540786 37.9361249,17.4926149 38.2439659,17.4926149 C38.5716125,17.4926149 38.8772858,17.4495221 39.1613606,17.3639825 C39.4448678,17.2778763 39.7016984,17.1532457 39.933145,16.9889643 C40.164591,16.8246828 40.367212,16.6242496 40.5420701,16.3863244 C40.7169288,16.148966 40.8583865,15.879825 40.9681686,15.5795866 L42.0371489,12.6395418 C42.0467634,12.61405 42.0466981,12.5914044 42.0387762,12.5710109 C42.030853,12.5511834 42.0111759,12.5346809 41.9777882,12.5216517 C41.9444018,12.5091891 41.8985237,12.4989656 41.839106,12.4916013 C41.7802536,12.4842377 41.7022,12.4803153 41.6065654,12.4803153 C41.5109308,12.4803153 41.4294124,12.4842349 41.3620721,12.4916013 C41.2952979,12.4989656 41.2409966,12.5091891 41.1979893,12.5216517 C41.1555482,12.5346809 41.1226688,12.5511834 41.1005994,12.5710109 C41.0779647,12.5914044 41.0626787,12.61405 41.0530592,12.6395418 L39.9801393,15.5908726 C39.9173264,15.7625183 39.8380494,15.9160283 39.7429809,16.0514185 C39.6467802,16.1868095 39.5393793,16.2995617 39.4199777,16.3918995 C39.3005762,16.4842366 39.1703945,16.553965 39.0289235,16.6021163 C38.888018,16.6502676 38.738612,16.6745911 38.5829943,16.6745911 C38.4290741,16.6745911 38.2983938,16.6508803 38.1903106,16.6044277 C38.0827922,16.5574097 38.0007529,16.4876814 37.9447303,16.3942109 C37.8892732,16.3007403 37.8631855,16.1823441 37.8677143,16.0395889 C37.8711081,15.8974003 37.9090392,15.7286347 37.979774,15.5337634 L39.0317756,12.6395418 C39.0413964,12.61405 39.040831,12.5914044 39.0317756,12.5710109 C39.0232876,12.5511834 39.0017085,12.5346809 38.9688868,12.5216517 C38.9354997,12.5091891 38.8885577,12.4989656 38.8285745,12.4916013 C38.7680246,12.4842377 38.6899028,12.4803153 38.5942682,12.4803153 L38.594271,12.4803153 Z M47.1042796,12.4876581 C47.0131723,12.4876581 46.9378796,12.4910833 46.8767643,12.4973121 C46.8167804,12.503543 46.7664884,12.5142435 46.725178,12.5295381 C46.6844345,12.5448334 46.6527109,12.5624693 46.6306409,12.5822968 C46.6080061,12.6026903 46.592154,12.625336 46.5831007,12.6508277 L45.7461172,14.9507039 C45.6833043,15.1251817 45.6189044,15.3081608 45.5526956,15.4996333 C45.4864868,15.6916733 45.4248047,15.8763065 45.3687821,16.0530504 L45.3647068,16.0530504 C45.3556534,15.9516489 45.3467079,15.8509338 45.3348248,15.750099 C45.323507,15.6486974 45.312094,15.5461006 45.2996448,15.4413002 C45.2871956,15.3359339 45.2725668,15.2317274 45.2567224,15.1269271 C45.2403119,15.0215601 45.2244835,14.9150645 45.2086384,14.8062987 L44.9064173,13.0144243 C44.8945342,12.9158549 44.8775054,12.8332519 44.8565676,12.7664064 C44.8350636,12.699561 44.8056267,12.6474463 44.7682783,12.6094914 C44.7297984,12.5715365 44.6811365,12.5436548 44.6217181,12.5272267 C44.562301,12.510798 44.4842689,12.5028872 44.3886343,12.5028872 L43.8549589,12.5028872 C43.7542308,12.5028872 43.658108,12.5329 43.5670001,12.5918144 C43.4758928,12.6512962 43.4091138,12.7403146 43.3661073,12.8592769 L41.7639948,17.2654006 C41.7543802,17.2903263 41.7526742,17.3135387 41.7572002,17.3339322 C41.7634245,17.353759 41.7798871,17.3707829 41.80705,17.3843788 C41.8353443,17.3985407 41.8766922,17.409354 41.9321486,17.4172843 C41.9876058,17.4246486 42.05889,17.4285702 42.1471674,17.4285702 C42.2377086,17.4285702 42.3135445,17.4246507 42.3752259,17.4172843 C42.4357751,17.409354 42.4855922,17.3985407 42.5246381,17.3843788 C42.5636841,17.3707829 42.5935752,17.353759 42.6156445,17.3339322 C42.6360156,17.3135387 42.6514135,17.2903263 42.6604683,17.2654006 L43.5936191,14.700374 C43.663223,14.5083347 43.7288219,14.3219332 43.7888064,14.1417905 C43.8499218,13.9610803 43.9081399,13.7797339 43.9641624,13.5978917 L43.9714973,13.5978917 C43.9748911,13.7468779 43.9851274,13.9005236 44.0009725,14.0585735 C44.0162515,14.2160573 44.0349097,14.3632883 44.0558476,14.499812 L44.441197,16.791801 C44.4587397,16.9181276 44.4779862,17.0212912 44.4989248,17.1005998 C44.5209935,17.1799077 44.5504318,17.2432882 44.5872141,17.2897401 C44.6251279,17.3367587 44.6721158,17.3691295 44.7298353,17.3866902 C44.7881215,17.4048183 44.8611707,17.4132053 44.950015,17.4132053 L45.3732608,17.4132053 C45.4213608,17.4132053 45.4711556,17.4064244 45.5232169,17.3922653 C45.5747121,17.3786694 45.6234199,17.3560696 45.6686908,17.3260457 C45.713395,17.2954551 45.7541545,17.2575315 45.7909375,17.2127783 C45.8277198,17.1668931 45.8565238,17.1152998 45.877461,17.0569514 L47.4799811,12.6508277 C47.4890393,12.625336 47.4913454,12.6026903 47.4856837,12.5822968 C47.480593,12.5624693 47.4647173,12.5448334 47.4386867,12.5295381 C47.4126561,12.5142435 47.3719195,12.5035444 47.3158969,12.4973121 C47.2604398,12.4910812 47.1897217,12.4876581 47.104274,12.4876581 L47.1042796,12.4876581 Z M11.7689731,12.5028872 C11.6852216,12.5028872 11.6065337,12.5273012 11.5312708,12.576586 C11.4565741,12.6264367 11.3995105,12.7062291 11.3587669,12.8172611 L9.80487403,17.0908093 C9.76469866,17.2024079 9.76406232,17.2823361 9.80310759,17.3316208 C9.84215355,17.3809048 9.90331616,17.4058626 9.98593476,17.4058626 L12.4458121,17.4058626 C12.469013,17.4058626 12.4922465,17.398405 12.5165796,17.3842431 C12.5397811,17.3706472 12.5641455,17.3491572 12.5873463,17.3185673 C12.6116794,17.2879766 12.6348455,17.24833 12.6597437,17.1990453 C12.6835107,17.1497606 12.7089404,17.0885564 12.7355365,17.0154794 C12.7621332,16.9424023 12.780815,16.8806315 12.7932643,16.8319134 C12.8045785,16.7826294 12.8096296,16.7424384 12.8079341,16.7118477 C12.8068005,16.6818238 12.7982882,16.6597908 12.7847075,16.6456282 C12.7711261,16.632599 12.7524679,16.6252319 12.7298317,16.6252319 L10.9666257,16.6252319 L11.4690602,15.2423694 L12.9489251,15.2423694 C12.9715606,15.2423694 12.994703,15.236229 13.01847,15.223197 C13.0416715,15.2107345 13.0649489,15.1896754 13.0881512,15.1607849 C13.111352,15.1318937 13.1350383,15.0934939 13.1582392,15.0453419 C13.1825722,14.9971906 13.2074359,14.9364849 13.2340319,14.8634079 C13.2600626,14.792597 13.2788125,14.7325262 13.2901296,14.6832415 C13.3020169,14.6345234 13.3065164,14.5954887 13.3042562,14.5660315 C13.3025593,14.5371403 13.2946333,14.5150391 13.2804858,14.5014432 C13.266339,14.4878473 13.2488116,14.4805031 13.2256107,14.4805031 L11.7464245,14.4805031 L12.1809443,13.2835179 L13.9296168,13.2835179 C13.9528183,13.2835179 13.9754399,13.276737 13.9980747,13.2625779 C14.0207108,13.248416 14.0438526,13.2268125 14.0676195,13.1962226 C14.0913865,13.1661987 14.1145964,13.1259853 14.1389301,13.0767006 C14.1632632,13.0279826 14.1881491,12.9679118 14.2141797,12.8965342 C14.2419087,12.8211911 14.26111,12.7588758 14.2729945,12.709025 C14.2843095,12.660307 14.2900163,12.6195945 14.2888862,12.5878712 C14.2871893,12.5567146 14.2804629,12.5346586 14.2668822,12.5221954 C14.2544323,12.5097336 14.236272,12.5028872 14.2136366,12.5028872 L11.7689724,12.5028872 L11.7689731,12.5028872 Z M15.8757865,12.5028872 C15.7926011,12.5028872 15.7134597,12.5273012 15.6387637,12.576586 C15.5640663,12.6264367 15.5063016,12.7062291 15.4661241,12.8172611 L13.8477117,17.2693438 C13.8386625,17.2948362 13.8374831,17.3175042 13.8454028,17.3373317 C13.8533254,17.3577252 13.8736596,17.3740919 13.9076128,17.3865544 C13.9404338,17.3990169 13.9880094,17.4097849 14.0496908,17.4171485 C14.1108062,17.4245128 14.1894266,17.4284345 14.2856273,17.4284345 C14.3835256,17.4284345 14.4662437,17.4245149 14.5318864,17.4171485 C14.5980952,17.4097842 14.6523276,17.3990169 14.6942034,17.3865544 C14.7366438,17.3740919 14.7699996,17.3577252 14.7937666,17.3373317 C14.8169674,17.3175042 14.8340184,17.2948362 14.8430725,17.2693438 L15.5220855,15.4010521 L15.8328641,15.4010521 C15.9381188,15.4010521 16.0257071,15.4173958 16.0947443,15.4508185 C16.1632161,15.4836746 16.2170869,15.5318676 16.2555668,15.5964477 C16.2940466,15.661027 16.3205404,15.7409559 16.3363855,15.8372585 C16.3522306,15.9329952 16.3636158,16.0428004 16.3721086,16.1668615 L16.4128577,17.2613216 C16.4117242,17.2919122 16.4150345,17.3180033 16.4218221,17.3389628 C16.4297446,17.3604898 16.4490837,17.3786694 16.4807725,17.3922653 C16.5118966,17.4064272 16.5582037,17.4154491 16.619319,17.420548 C16.6809998,17.4256441 16.7642178,17.4284345 16.8706041,17.4284345 C16.9967967,17.4284345 17.0975853,17.4256497 17.172282,17.420548 C17.2475448,17.4154519 17.30574,17.4069034 17.3481818,17.3944409 C17.391189,17.3814117 17.4207164,17.3655441 17.4376937,17.34685 C17.4546696,17.3281559 17.4682566,17.3044443 17.4784421,17.2766865 C17.4874969,17.2517615 17.4936523,17.2165802 17.4970509,17.1723944 C17.5004447,17.1282079 17.5009663,17.05805 17.4981358,16.9623134 L17.436469,15.9963492 C17.4308081,15.880219 17.4194882,15.7760808 17.4025116,15.683743 C17.3861005,15.5919725 17.3617577,15.5091649 17.331201,15.4372212 C17.300643,15.3652769 17.2628273,15.3042085 17.2164242,15.2537911 C17.1705886,15.2028077 17.1179404,15.1602816 17.0568243,15.1251595 C17.2260235,15.0770075 17.3838764,15.0135142 17.5310062,14.9353383 C17.6781353,14.857163 17.8110793,14.7648579 17.9304816,14.6583582 C18.0498832,14.5524252 18.1546358,14.4323282 18.245743,14.2969372 C18.3362842,14.162113 18.4115074,14.0125024 18.4714919,13.8482209 C18.5422274,13.6533489 18.5756548,13.4812513 18.5728208,13.330565 C18.5688637,13.1804462 18.5321301,13.0506248 18.4625269,12.9407256 C18.3929229,12.830827 18.2915453,12.7419221 18.1579969,12.6739433 C18.02558,12.6053985 17.8659613,12.5572959 17.6786534,12.5295381 C17.6135768,12.5221738 17.5406625,12.5158726 17.4586093,12.5107737 C17.3771215,12.5056776 17.2723466,12.5028872 17.1438917,12.5028872 L15.8757844,12.5028872 L15.8757865,12.5028872 Z M27.8335627,12.5028872 C27.7503773,12.5028872 27.671101,12.5273012 27.5964036,12.576586 C27.5217076,12.6264367 27.4639422,12.7062291 27.4237641,12.8172611 L25.8698712,17.0908093 C25.8296896,17.2024079 25.8285386,17.2823361 25.8670198,17.3316208 C25.9066312,17.3809048 25.9677486,17.4058626 26.0509333,17.4058626 L28.5108107,17.4058626 C28.5340115,17.4058626 28.557268,17.398405 28.581035,17.3842431 C28.6053687,17.3706472 28.6286009,17.3491572 28.6518024,17.3185673 C28.6767009,17.2879766 28.7004324,17.24833 28.7241993,17.1990453 C28.7485324,17.1497606 28.7739392,17.0885564 28.8005359,17.0154794 L28.800675,17.0154794 C28.8272718,16.9424023 28.8463834,16.8806315 28.8582672,16.8319134 C28.8690154,16.7826294 28.874789,16.7424384 28.8725288,16.7118477 C28.8713952,16.6818238 28.863449,16.6597908 28.8493022,16.6456282 C28.8357208,16.632599 28.8170626,16.6252319 28.7944271,16.6252319 L27.0310846,16.6252319 L27.5336547,15.2423694 L29.0133842,15.2423694 C29.0365858,15.2423694 29.0591621,15.236229 29.0829291,15.223197 C29.106696,15.2107345 29.1299518,15.1896754 29.1531534,15.1607849 C29.1763542,15.1318937 29.1996107,15.0934939 29.2233777,15.0453419 C29.2471446,14.9971906 29.2725737,14.9364849 29.2991705,14.8634079 C29.324635,14.792597 29.3432716,14.7325262 29.3545887,14.6832415 C29.3664767,14.6345234 29.3715187,14.5954887 29.3692585,14.5660315 C29.3675616,14.5371403 29.3592058,14.5150391 29.3456243,14.5014432 C29.3314768,14.4878473 29.3132491,14.4805031 29.290613,14.4805031 L27.8108834,14.4805031 L28.2460819,13.2835179 L29.9940759,13.2835179 C30.0167113,13.2835179 30.039876,13.276737 30.0630769,13.2625779 C30.0851469,13.248416 30.1088777,13.2268125 30.1320786,13.1962226 C30.1558456,13.1661987 30.1801876,13.1259853 30.2033892,13.0767006 C30.2282883,13.0279826 30.2532876,12.9679118 30.2793183,12.8965342 C30.3070465,12.8211911 30.3257047,12.7588758 30.3375892,12.709025 C30.3494689,12.660307 30.3544754,12.6195945 30.3533453,12.5878712 C30.3522117,12.5567146 30.3448998,12.5346586 30.3318844,12.5221954 C30.3188691,12.5097336 30.3012965,12.5028872 30.2780957,12.5028872 L27.8335669,12.5028872 L27.8335627,12.5028872 Z M7.07211447,12.5031657 C6.98892909,12.5031657 6.90965212,12.527579 6.83495539,12.5768637 C6.76025934,12.6261484 6.70305939,12.7059409 6.66231584,12.8175388 L5.10842296,17.0910877 C5.06824829,17.202119 5.06706811,17.2820702 5.10611407,17.3313549 C5.14516003,17.3806396 5.206299,17.4055973 5.28948369,17.4055973 L6.591684,17.4055973 C6.78804668,17.4055973 6.97139613,17.3936507 7.1400292,17.3692917 C7.30922835,17.3454994 7.47324016,17.3080743 7.63281987,17.2576569 C7.79239889,17.2072394 7.94524736,17.1427478 8.09124496,17.0645726 C8.23724326,16.9863974 8.37138833,16.8929359 8.49588197,16.7847368 C8.6198109,16.675971 8.73124332,16.5500942 8.83083851,16.4090383 C8.93043439,16.2674165 9.01195348,16.1100531 9.0753318,15.9355745 C9.13588172,15.769027 9.16531658,15.6182377 9.16362177,15.4845469 C9.16135461,15.3508553 9.13522661,15.2342497 9.08429682,15.1345476 C9.03336774,15.0348462 8.96092842,14.9532401 8.866426,14.8897935 C8.77192428,14.8269129 8.66051342,14.7821437 8.53092632,14.757218 C8.65372237,14.7169976 8.76972875,14.6637043 8.87837868,14.5979915 C8.98702791,14.5322788 9.08548604,14.4564532 9.17489569,14.3709137 C9.26373994,14.2848075 9.3423597,14.1896236 9.41083148,14.0848233 C9.47930326,13.980023 9.53473677,13.8684717 9.5783101,13.7495095 C9.65583592,13.5376427 9.68473042,13.3528515 9.66605624,13.1965004 C9.64738205,13.0395832 9.58508794,12.909853 9.47983319,12.8078848 C9.37457914,12.7053505 9.22689299,12.628913 9.03675666,12.5784956 C8.84718503,12.5280782 8.60224318,12.5031657 8.30232473,12.5031657 L7.07211447,12.5031657 Z M7.48232063,13.2492584 L7.98543385,13.2492584 C8.13935401,13.2492584 8.25708093,13.2633813 8.33913482,13.2911391 C8.42118801,13.3188969 8.48280267,13.3585436 8.52467841,13.4106604 C8.56655345,13.4622112 8.58804559,13.527337 8.5897404,13.6055122 C8.5914373,13.6842541 8.57499828,13.7720939 8.5393475,13.8706633 C8.50709191,13.9596016 8.46241559,14.0428855 8.40582694,14.1227601 C8.3486722,14.2020687 8.28141954,14.2717282 8.20276153,14.3312093 C8.12466961,14.3906904 8.03633512,14.4371381 7.93843683,14.4711275 C7.83997314,14.5051163 7.71939348,14.5226617 7.57509208,14.5226617 L7.01941199,14.5226617 L7.48232063,13.2492584 Z M16.2990323,13.264216 L16.7455047,13.264216 C16.8592474,13.264216 16.947061,13.2688178 17.0087431,13.2761814 C17.0704238,13.2835457 17.1235923,13.2936558 17.1694293,13.3055523 C17.3193882,13.3520042 17.410985,13.4295981 17.443806,13.5411961 C17.4766277,13.652228 17.4631089,13.7887593 17.4048226,13.9502079 C17.3657767,14.0561417 17.3137627,14.1525271 17.2469885,14.2380667 C17.1807797,14.3241729 17.1003253,14.3983659 17.0075205,14.4601131 C16.9141496,14.5218603 16.808922,14.5694185 16.6900865,14.6039746 C16.5718164,14.637964 16.442269,14.654965 16.300798,14.654965 L15.7937451,14.654965 L16.2990323,13.264216 Z M6.75454415,15.2501263 L7.34486036,15.2501263 C7.52650943,15.2501263 7.66787605,15.2664924 7.76973631,15.2993491 C7.87102909,15.3322051 7.94806392,15.3786528 7.9995605,15.4392674 C8.04992349,15.4998812 8.07813715,15.5752083 8.08323131,15.6647133 C8.08889226,15.7542183 8.07088849,15.8557041 8.02957884,15.9695681 C7.98996679,16.0789007 7.93564252,16.1751956 7.86603924,16.2596024 C7.79530378,16.3440093 7.71546003,16.4148021 7.62548498,16.4714511 C7.53550854,16.5286661 7.43761859,16.5711692 7.33236384,16.6006271 C7.22710979,16.6300844 7.1054654,16.6435946 6.96738966,16.6435946 L6.24817066,16.6435946 L6.75454415,15.2501263 Z"/>
  </g>
</svg>
