<svg xmlns="http://www.w3.org/2000/svg" xmlns:xlink="http://www.w3.org/1999/xlink" width="53" height="18" viewBox="0 0 53 18">
  <defs>
    <path id="icon-payment-visa-a" d="M27.2574984,11.74748 C27.227471,9.39431862 29.3673179,8.08107236 30.9793148,7.3003506 C32.6355626,6.49920755 33.1918596,5.98553348 33.1855381,5.26921734 C33.1728949,4.17275096 31.8643327,3.6889234 30.6395311,3.67007297 C28.502845,3.63708473 27.2606591,4.24344006 26.2729159,4.70213373 L25.5032664,1.12212389 C26.4941704,0.668142832 28.3290022,0.272283913 30.2317907,0.255004357 C34.6979705,0.255004357 37.62011,2.44636623 37.6359139,5.84415529 C37.6532982,10.1561899 31.6351763,10.394962 31.6762664,12.3224179 C31.6904899,12.9067811 32.2515281,13.530416 33.4810708,13.6890737 C34.0895206,13.769188 35.7694743,13.8304519 37.6738432,12.9586198 L38.4213673,16.4223853 C37.3972751,16.7931103 36.080811,17.1481267 34.4419474,17.1481267 C30.2381123,17.1481267 27.2812042,14.9269183 27.2574984,11.74748 M45.6042359,16.8496616 C44.7887552,16.8496616 44.1012859,16.3768301 43.7946904,15.6510888 L37.4146594,0.509485091 L41.8776783,0.509485091 L42.765857,2.94904423 L48.21978,2.94904423 L48.7349868,0.509485091 L52.6685754,0.509485091 L49.2359702,16.8496616 L45.6042359,16.8496616 M46.2284897,12.4355205 L47.5165068,6.29970722 L43.9890782,6.29970722 L46.2284897,12.4355205 M21.8462459,16.8496616 L18.3282997,0.509485091 L22.5811269,0.509485091 L26.0974927,16.8496616 L21.8462459,16.8496616 M15.5547168,16.8496616 L11.1280468,5.727911 L9.33746586,15.1845407 C9.12727411,16.2401645 8.2975698,16.8496616 7.37620293,16.8496616 L0.139601041,16.8496616 L0.0384561358,16.3752592 C1.52402193,16.054802 3.21187754,15.5379862 4.23438931,14.9850404 C4.86022342,14.6473036 5.03880739,14.3519803 5.24425798,13.5492664 L8.63577308,0.509485091 L13.1303998,0.509485091 L20.0208965,16.8496616 L15.5547168,16.8496616"/>
    <linearGradient id="icon-payment-visa-c" x1="16.148%" x2="85.832%" y1="34.401%" y2="66.349%">
      <stop offset="0%" stop-color="#222357"/>
      <stop offset="100%" stop-color="#254AA5"/>
    </linearGradient>
  </defs>
  <g fill="none" fill-rule="evenodd" transform="matrix(1 0 0 -1 .118 17.285)">
    <mask id="icon-payment-visa-b" fill="#fff">
      <use xlink:href="#icon-payment-visa-a"/>
    </mask>
    <g mask="url(#icon-payment-visa-b)">
      <polyline fill="url(#icon-payment-visa-c)" fill-rule="nonzero" points="0 31.941 51.856 50.923 63.653 19.082 11.798 .1" transform="translate(-5.473 -16.81)"/>
    </g>
  </g>
</svg>
