<svg xmlns="http://www.w3.org/2000/svg" width="82" height="23" viewBox="0 0 82 23">
  <g fill="none" fill-rule="evenodd" transform="translate(0 -.5)">
    <g transform="translate(.647 .488)">
      <path fill="#007FC3" fill-rule="nonzero" d="M0.0140872907,20.4969468 L0.0140872907,1.52892596 C0.0140872907,0.685477432 0.698900775,0.00235616565 1.54416537,0.00235616565 L16.8879305,0.00235616565 C17.7331951,0.00235616565 18.4180085,0.685477432 18.4180085,1.52892596 L18.4180085,20.4969468 C18.4180085,21.3390555 17.7328864,22.0218689 16.8879305,22.0218689 L1.54416537,22.0218689 C0.699209439,22.0218689 0.0140872907,21.3390555 0.0140872907,20.4969468 Z M0.541472402,20.4969468 C0.541472402,21.0487702 0.990476193,21.496261 1.54416537,21.496261 L16.8879305,21.496261 C17.4416196,21.496261 17.8906234,21.0487702 17.8906234,20.4969468 L17.8906234,1.52892596 C17.8906234,0.975656697 17.4418218,0.527964126 16.8879305,0.527964126 L1.54416537,0.527964126 C0.99027399,0.527964126 0.541472402,0.975656697 0.541472402,1.52892596 L0.541472402,20.4969468 Z" transform="matrix(1 0 0 -1 0 23.002)"/>
      <path fill="#007FC3" d="M3.50434946,10.4803329 L3.50434946,8.45863711 L4.63682216,8.45863711 L4.63682216,11.0916199 L4.11770329,11.0916199 C3.78540108,11.0916199 3.50434946,10.8214014 3.50434946,10.4803329 Z M3.50434946,3.49584361 C3.50434946,3.13665072 3.78540108,2.85325082 4.12596951,2.85325082 L4.63682216,2.85325082 L4.63682216,4.91284308 L8.17145956,4.91284308 L8.17145956,0.0522053498 L1.56013357,0.0522053498 C0.685567061,0.0522053498 0.0490678088,0.760705087 0.0490678088,1.63067686 L0.0490678088,12.3125461 C0.0490678088,13.1874609 0.685567061,13.8926653 1.56013357,13.8926653 L8.17145956,13.8926653 L8.17145956,5.72844161 L3.50434946,5.72844161 L3.50434946,3.49584361 Z" transform="matrix(1 0 0 -1 2.168 16.99)"/>
      <path fill="#007FC3" d="M0.330162276,1.38432786 L0.659163284,1.38432786 L0.659163284,1.56557198 C0.654203549,1.76658819 0.616178918,1.83579049 0.485572578,1.83579049 C0.326861077,1.83579049 0.330167566,1.65454637 0.330167566,1.46671155 L0.330162276,1.38432786 Z M0.00778482811,0.899911764 L0.00778482811,1.43540575 C-0.0104008648,1.91982185 0.16318984,2.19498338 0.480612844,2.19498338 C0.933601922,2.19498338 0.981546022,1.85885792 0.981546022,1.29535348 L0.981546022,1.02019195 L0.330167566,1.02019195 L0.330167566,0.721962993 C0.336780545,0.451744488 0.406216827,0.4006666 0.503758271,0.4006666 C0.621138653,0.4006666 0.659163284,0.52588981 0.654203549,0.787869945 L0.976586287,0.787869945 C0.989812246,0.329816627 0.859205906,0.0414737106 0.528556943,0.0414737106 C0.153270371,0.0414737106 -0.000481395947,0.298510824 0.00778482811,0.899911764 Z" transform="matrix(1 0 0 -1 2.2 21.096)"/>
      <path fill="red" d="M8.0016086,0 L1.51592921,0 L1.4415332,0.00823836903 L1.37209691,0.0181244119 L1.29604765,0.0313058023 L1.22661137,0.0494302142 L1.16048158,0.0741453213 L1.0910453,0.0972127546 L1.0249155,0.120280188 C0.811646923,0.215845269 0.674427604,0.313058023 0.505796633,0.474530056 C0.36031109,0.62776372 0.242930708,0.809007839 0.165228202,1.0067287 L0.142082775,1.07098797 L0.122243837,1.14678097 L0.104058144,1.21598327 L0.085872451,1.28518557 L0.0759529821,1.36097856 L0.0660335132,1.43018086 L0.0627270236,1.50926921 L0.0577672892,1.57847151 L0.0577672892,12.2735222 C0.067686758,12.688736 0.208212567,13.0594626 0.497530409,13.3593392 C0.639709463,13.5109252 0.814953412,13.6328531 1.00672981,13.7135891 L1.07120636,13.7432472 L1.13733615,13.7663147 L1.20842568,13.7844391 L1.27290223,13.8025635 L1.34729824,13.8173925 L1.41838777,13.8256309 L1.48782405,13.835517 L1.56222007,13.84046 L8.0016086,13.84046 L8.0016086,8.41137478 L4.61741648,8.41137478 L4.61741648,11.0476529 C4.09499112,11.1300366 3.52958139,11.011404 3.49816974,10.4001171 L3.49816974,10.6390298 L3.49486325,10.3918787 L3.49816974,10.4001171 L3.49816974,3.45187662 L3.49486325,3.46176267 L3.49816974,3.40079874 L3.49816974,3.45187662 C3.53123464,2.83894197 4.09333787,2.71866178 4.6256827,2.80598849 L4.6256827,5.62845372 L4.6405619,5.67953161 L8.0016086,5.67953161 L8.0016086,0" transform="matrix(1 0 0 -1 8.248 16.939)"/>
      <path fill="red" fill-rule="nonzero" d="M0.925552326,1.45016435 L0.603169588,1.45016435 L0.603169588,1.67754333 C0.598209854,1.78958515 0.556878733,1.85549211 0.490748941,1.85549211 C0.36675558,1.85549211 0.36675558,1.64623753 0.36675558,1.39908646 L0.36675558,0.913022688 C0.355182867,0.512637953 0.393207497,0.438492632 0.490748941,0.42036822 C0.58994363,0.425311241 0.594903364,0.560420493 0.603169588,0.7235402 L0.603169588,0.913022688 L0.925552326,0.913022688 L0.925552326,0.7235402 C0.925552326,0.29514501 0.804865455,0.0611753299 0.482482717,0.0611753299 C0.196471365,0.0611753299 0.0344533733,0.280315946 0.0476793317,0.825695976 L0.0476793317,1.48641317 C0.0427195973,2.06474668 0.234495995,2.214685 0.482482717,2.214685 C0.809825189,2.214685 0.932165305,1.91645604 0.925552326,1.61328406 L0.925552326,1.45016435" transform="matrix(1 0 0 -1 12.018 21.116)"/>
      <path fill="#292526" d="M1.52093709,0 C1.12911807,0.0164767381 0.752178249,0.197720857 0.477739611,0.474530056 C0.332254067,0.62776372 0.214873686,0.809007839 0.13717118,1.0067287 L0.114025752,1.07098797 L0.0941868146,1.14678097 L0.0760011217,1.21598327 L0.0578154288,1.28518557 L0.0478959599,1.36097856 L0.0379764911,1.43018086 L0.0346700014,1.50926921 L0.029710267,1.57847151 L0.029710267,4.86063773 L2.06320138,4.86063773 L2.06320138,0 L1.52093709,0 Z M0.029710267,12.2735222 C0.0693881425,13.3889974 0.985285768,13.9821599 2.06320138,13.84046 L2.06320138,5.67623626 L0.029710267,5.67623626 L0.029710267,12.2735222 Z" transform="matrix(1 0 0 -1 8.276 16.939)"/>
      <polygon fill="#292526" fill-rule="nonzero" points=".035 0 .035 2.727 .395 2.727 .395 0" transform="matrix(1 0 0 -1 3.394 21.003)"/>
      <path fill="#292526" d="M0.326074434,1.37083001 L0.648457172,1.37083001 L0.648457172,1.55207412 C0.648457172,1.75309033 0.612085786,1.82229263 0.481479446,1.82229263 C0.316154965,1.82229263 0.326074434,1.64104851 0.326074434,1.4532137 L0.326074434,1.37083001 Z M0.00369169616,0.886413907 L0.00369169616,1.42190789 C-0.0111875071,1.90632399 0.157443464,2.18148552 0.474866467,2.18148552 C0.92950879,2.18148552 0.97745289,1.84536006 0.97745289,1.28185562 L0.97745289,1.00669409 L0.326074434,1.00669409 L0.326074434,0.708465136 C0.331034169,0.438246632 0.402123696,0.387168744 0.494705405,0.387168744 C0.617045521,0.387168744 0.648457172,0.512391953 0.645150683,0.774372088 L0.97083991,0.774372088 C0.985719114,0.31631877 0.855112774,0.0279758537 0.522810567,0.0279758537 C0.14917724,0.0279758537 -0.00126803827,0.285012968 0.00369169616,0.886413907 Z" transform="matrix(1 0 0 -1 3.986 21.082)"/>
      <path fill="#292526" fill-rule="nonzero" d="M0.925552326,1.45016435 L0.603169588,1.45016435 L0.603169588,1.67754333 C0.598209854,1.78958515 0.561838468,1.85549211 0.492402186,1.85549211 C0.368408825,1.85549211 0.368408825,1.64623753 0.368408825,1.39908646 L0.368408825,0.913022688 C0.365102335,0.512637953 0.398167232,0.438492632 0.492402186,0.42036822 C0.58994363,0.425311241 0.593250119,0.560420493 0.603169588,0.7235402 L0.603169588,0.913022688 L0.925552326,0.913022688 L0.925552326,0.7235402 C0.925552326,0.29514501 0.809825189,0.0611753299 0.485789207,0.0611753299 C0.196471365,0.0611753299 0.0328001284,0.280315946 0.0460260869,0.825695976 L0.0460260869,1.48641317 C0.0427195973,2.06474668 0.237802485,2.214685 0.485789207,2.214685 C0.814784924,2.214685 0.930512061,1.91645604 0.925552326,1.61328406 L0.925552326,1.45016435" transform="matrix(1 0 0 -1 5.102 21.116)"/>
      <path fill="#292526" fill-rule="nonzero" d="M0.60385428,0.417256915 L0.60385428,0.044882635 C0.407118148,0.0168721802 0.140945733,-0.0127859483 0.140945733,0.369474375 L0.140945733,1.76011107 L0.0103393934,1.76011107 L0.0103393934,2.10282722 L0.135985999,2.10282722 L0.135985999,2.66797934 L0.463328472,2.66797934 L0.463328472,2.10282722 L0.60385428,2.10282722 L0.60385428,1.76011107 L0.463328472,1.76011107 L0.463328472,0.481516194 C0.47324794,0.39748483 0.56252316,0.412313894 0.60385428,0.417256915" transform="matrix(1 0 0 -1 6.084 21.057)"/>
      <path fill="#292526" fill-rule="nonzero" d="M0.330167566,2.11029087 L0.330167566,1.74780263 L0.335127301,1.74780263 C0.376458421,1.89774095 0.414483052,1.98012464 0.460773906,2.03614555 C0.550049126,2.14818736 0.614525674,2.14324434 0.665776263,2.14818736 L0.665776263,1.58468292 C0.483919334,1.61269338 0.348353259,1.54678643 0.343393525,1.24361444 L0.343393525,0.0605846515 L0.0160510522,0.0605846515 L0.0160510522,2.11029087 L0.330167566,2.11029087" transform="matrix(1 0 0 -1 6.802 21.064)"/>
      <path fill="#292526" d="M0.528629153,0.0658364859 C0.103745237,0.0510074216 0.0276959752,0.359122423 0.0326557097,1.06762216 C0.0326557097,1.77117888 0.0376154441,2.21934615 0.528629153,2.21934615 C1.00972339,2.21934615 1.01633637,1.77117888 1.01633637,1.06762216 C1.01964286,0.359122423 0.95020658,0.0510074216 0.528629153,0.0658364859 Z M0.355038448,1.4680069 L0.355038448,0.787517613 C0.355038448,0.537071195 0.374877385,0.425029376 0.528629153,0.425029376 C0.679074431,0.425029376 0.692300389,0.537071195 0.692300389,0.787517613 L0.692300389,1.4680069 C0.692300389,1.65913706 0.692300389,1.86015326 0.528629153,1.86015326 C0.355038448,1.86015326 0.355038448,1.65913706 0.355038448,1.4680069 Z" transform="matrix(1 0 0 -1 7.52 21.12)"/>
      <path fill="#292526" fill-rule="nonzero" d="M0.330167566,2.11029087 L0.330167566,1.90103629 L0.335127301,1.90103629 C0.409523317,2.139949 0.55500886,2.16301643 0.629404877,2.16301643 C0.811261806,2.16301643 0.961707084,2.00978276 0.951787615,1.64564685 L0.951787615,0.0605846515 L0.629404877,0.0605846515 L0.629404877,1.42650624 C0.629404877,1.62587477 0.611219184,1.756041 0.488879068,1.76757472 C0.368192197,1.77087006 0.325207832,1.60280733 0.330167566,1.38860974 L0.330167566,0.0605846515 L0.00778482811,0.0605846515 L0.00778482811,2.11029087 L0.330167566,2.11029087" transform="matrix(1 0 0 -1 8.733 21.064)"/>
      <path fill="#292526" d="M10.2975713,18.7049087 L9.93783128,18.7049087 L9.93783128,18.2765138 L10.2975713,18.2765138 L10.2975713,18.7049087 Z M10.2975713,21.0034148 L9.93783128,21.0034148 L9.93783128,18.9520585 L10.2975713,18.9520585 L10.2975713,21.0034148 Z"/>
      <path fill="#292526" fill-rule="nonzero" d="M0.925552326,1.45016435 L0.599863099,1.45016435 L0.599863099,1.67754333 C0.593250119,1.78958515 0.556878733,1.85549211 0.490748941,1.85549211 C0.365102335,1.85549211 0.365102335,1.64623753 0.368408825,1.39908646 L0.368408825,0.913022688 C0.360142601,0.512637953 0.393207497,0.438492632 0.490748941,0.42036822 C0.58994363,0.425311241 0.58994363,0.560420493 0.599863099,0.7235402 L0.599863099,0.913022688 L0.925552326,0.913022688 L0.925552326,0.7235402 C0.925552326,0.29514501 0.80321221,0.0611753299 0.480829472,0.0611753299 C0.196471365,0.0611753299 0.027840394,0.280315946 0.0410663525,0.825695976 L0.0410663525,1.48641317 C0.0410663525,2.06474668 0.234495995,2.214685 0.480829472,2.214685 C0.808171945,2.214685 0.925552326,1.91645604 0.925552326,1.61328406 L0.925552326,1.45016435" transform="matrix(1 0 0 -1 10.447 21.116)"/>
      <path fill="#292526" d="M0.660936877,0.923472462 L0.660936877,1.14261308 C0.581581126,1.06352474 0.484039683,0.981141045 0.394764463,0.882280617 C0.351780098,0.821316686 0.343513874,0.71916091 0.343513874,0.635129546 C0.343513874,0.47695286 0.381538504,0.369854063 0.497265641,0.369854063 C0.685735549,0.369854063 0.655977143,0.724103931 0.660936877,0.923472462 Z M1.01142478,0.0617390608 L0.703921242,0.0617390608 C0.685735549,0.127646013 0.685735549,0.196848313 0.685735549,0.270993634 C0.606379799,0.10457858 0.50718511,0.0106611728 0.394764463,0.0106611728 C0.133551783,0.0106611728 0.0211311356,0.196848313 0.0211311356,0.625243503 C0.0211311356,1.08659217 0.24597243,1.20357701 0.502225375,1.35681067 C0.63779145,1.43589902 0.685735549,1.53475944 0.660936877,1.69787915 C0.647710919,1.79014888 0.59646033,1.80497795 0.512144844,1.80497795 C0.363352811,1.80497795 0.338554139,1.69293613 0.338554139,1.50674899 L0.0293973596,1.50674899 C0.0293973596,1.89395233 0.113712845,2.16417084 0.520411068,2.16417084 C0.965133922,2.16417084 0.98827935,1.8329884 0.98827935,1.55947455 L0.98827935,0.346786629 C0.98827935,0.252869222 0.993239084,0.160599489 1.01142478,0.0617390608 Z" transform="matrix(1 0 0 -1 13.055 21.065)"/>
      <path fill="#292526" fill-rule="nonzero" d="M0.0655521173,0.79179949 L0.387934855,0.79179949 C0.364789428,0.414482188 0.467290606,0.424368231 0.538380133,0.424368231 C0.635921577,0.424368231 0.697091635,0.526524007 0.673946208,0.656690238 C0.668986473,0.773675078 0.576404764,0.83958203 0.515234706,0.898898287 L0.341644001,1.07684706 C0.177972764,1.23996677 0.0705118517,1.43109693 0.0705118517,1.72438286 C0.0705118517,2.04073624 0.244102557,2.21868501 0.551606092,2.21868501 C0.87068234,2.21868501 1.01616788,1.98141998 1.00624841,1.54313875 L0.682212432,1.54313875 C0.688825411,1.77051773 0.645841046,1.85949212 0.530113909,1.85949212 C0.454064648,1.85949212 0.39289459,1.80841423 0.39289459,1.69142939 C0.39289459,1.5711492 0.454064648,1.51512829 0.515234706,1.45416436 L0.786366855,1.1938319 C0.865722606,1.12298193 0.991369211,0.926908742 1.00128868,0.79179949 C1.03435358,0.4326066 0.973183518,0.0651753412 0.518541195,0.0651753412 C0.35156347,0.0651753412 0.0291807315,0.167331117 0.0655521173,0.79179949" transform="matrix(1 0 0 -1 14.141 21.12)"/>
      <path fill="#292526" fill-rule="nonzero" d="M0.330167566,0 L0.00282509367,0 L0.00282509367,2.72690015 L0.330167566,2.72690015 L0.330167566,1.84045164 L0.333474056,1.84045164 C0.422749276,2.08265969 0.55831535,2.10243178 0.624445142,2.10243178 C0.811261806,2.10243178 0.961707084,1.94919811 0.951787615,1.5850622 L0.951787615,0 L0.624445142,0 L0.624445142,1.40381808 C0.624445142,1.60318661 0.611219184,1.73335284 0.488879068,1.74323889 C0.366538952,1.74818191 0.325207832,1.5850622 0.330167566,1.36097856 L0.330167566,0" transform="matrix(1 0 0 -1 15.313 21.003)"/>
    </g>
    <path fill="#1A1C21" d="M29.3580864,15.4778437 L31.0515729,7.36460462 L32.1362897,7.36460462 L30.6365027,14.559155 L34.8480818,14.559155 L34.6543823,15.4778437 L29.3580864,15.4778437 Z M39.5466766,14.7473201 C39.1998606,15.0461722 38.865963,15.2647736 38.5449738,15.4031311 C38.2239845,15.5414885 37.8808633,15.6106662 37.5155997,15.6106662 C36.9732385,15.6106662 36.5360356,15.4510963 36.2039778,15.1319519 C35.87192,14.8128074 35.7058935,14.4041979 35.7058935,13.9061112 C35.7058935,13.5777429 35.7806054,13.2871966 35.9300314,13.0344637 C36.0794575,12.7817308 36.2777668,12.5788096 36.5249654,12.4256941 C36.772164,12.2725785 37.0747011,12.1628166 37.4325856,12.096405 C37.657647,12.0521307 38.0847039,12.0170806 38.713769,11.9912539 C39.3428341,11.9654272 39.7938726,11.8990166 40.0668979,11.7920202 C40.1443781,11.5189949 40.1831176,11.2920921 40.1831176,11.1113051 C40.1831176,10.8788646 40.0982596,10.6962355 39.9285412,10.5634124 C39.6961007,10.3789358 39.3566689,10.2866989 38.9102356,10.2866989 C38.489629,10.2866989 38.1455853,10.3798582 37.8780943,10.5661795 C37.6106033,10.7525009 37.4159834,11.0172208 37.2942289,11.3603472 L36.2814576,11.2717989 C36.4880713,10.6888529 36.8155123,10.2424263 37.2637904,9.93250567 C37.7120685,9.62258503 38.2774807,9.46762703 38.960044,9.46762703 C39.6868817,9.46762703 40.26244,9.64103241 40.6867361,9.98784836 C41.0114148,10.2461156 41.1737518,10.5818579 41.1737518,10.9950854 C41.1737518,11.3086956 41.1276333,11.672109 41.0353951,12.0853365 L40.7088732,13.5463837 C40.6055663,14.0112646 40.5539136,14.3894359 40.5539136,14.6809089 C40.5539136,14.8653855 40.5944979,15.1310278 40.6756675,15.4778437 L39.6628962,15.4778437 C39.6075533,15.2859881 39.5688138,15.0424827 39.5466766,14.7473201 Z M39.9174726,12.5004067 C39.7772704,12.5557497 39.6269243,12.5981787 39.4664297,12.6276949 C39.305935,12.6572112 39.0375257,12.6885717 38.6611934,12.7217775 C38.0782475,12.7734309 37.6668709,12.8389191 37.4270513,12.9182441 C37.1872318,12.997569 37.0064475,13.1239336 36.8846929,13.2973415 C36.7629384,13.4707495 36.702062,13.6626023 36.702062,13.8729056 C36.702062,14.1533099 36.7989108,14.3839022 36.9926112,14.5646892 C37.1863116,14.7454763 37.4620999,14.8358685 37.8199845,14.8358685 C38.1520423,14.8358685 38.471182,14.7482434 38.7774131,14.5729907 C39.0836442,14.3977379 39.3253049,14.1533101 39.5024024,13.8396999 C39.6794999,13.5260898 39.8178553,13.0796632 39.9174726,12.5004067 Z M41.9817551,13.4689039 L42.9834579,13.4080269 C42.9834579,13.6958104 43.0277316,13.9411605 43.1162804,14.1440848 C43.2048292,14.347009 43.3680885,14.5130354 43.6060632,14.642169 C43.844038,14.7713026 44.1216711,14.8358685 44.4389708,14.8358685 C44.8817146,14.8358685 45.2137674,14.747321 45.4351393,14.5702235 C45.6565112,14.393126 45.7671955,14.1846706 45.7671955,13.9448511 C45.7671955,13.7714431 45.7007849,13.6072614 45.5679618,13.4523011 C45.4314491,13.2973408 45.0984739,13.1064104 44.5690261,12.8795042 C44.0395784,12.652598 43.7010689,12.4930282 43.5534877,12.4007899 C43.3062891,12.2495191 43.1199705,12.0715019 42.9945265,11.8667329 C42.8690824,11.6619639 42.8063613,11.4267598 42.8063613,11.1611135 C42.8063613,10.6962325 42.9908351,10.2977691 43.3597883,9.96571129 C43.7287414,9.63365345 44.2452681,9.46762703 44.9093837,9.46762703 C45.64729,9.46762703 46.2090127,9.6382653 46.5945688,9.97954696 C46.9801248,10.3208286 47.1802789,10.7700223 47.195037,11.3271416 L46.2154713,11.3935528 C46.2007132,11.0393578 46.075271,10.7589576 45.839141,10.5523439 C45.603011,10.3457301 45.2691134,10.2424248 44.8374382,10.2424248 C44.4906223,10.2424248 44.2212905,10.3217485 44.0294349,10.4803983 C43.8375792,10.6390482 43.7416529,10.8106088 43.7416529,10.9950854 C43.7416529,11.179562 43.8246661,11.3418989 43.990695,11.4821011 C44.1013809,11.5780289 44.3873153,11.725608 44.8485068,11.9248427 C45.6159293,12.2569005 46.0992507,12.5188533 46.2984854,12.710709 C46.6157851,13.0169401 46.7744325,13.3895772 46.7744325,13.8286314 C46.7744325,14.1201044 46.6849627,14.4060388 46.5060205,14.6864432 C46.3270782,14.9668476 46.054057,15.1909832 45.6869486,15.3588569 C45.3198402,15.5267306 44.8872491,15.6106662 44.3891624,15.6106662 C43.7102886,15.6106662 43.1328856,15.442795 42.656936,15.1070477 C42.1809865,14.7713003 41.9559284,14.2252578 41.9817551,13.4689039 Z M49.8957605,14.6643061 L49.7297325,15.483378 C49.4899129,15.5461 49.2574759,15.5774606 49.0324145,15.5774606 C48.6339451,15.5774606 48.3166502,15.4796894 48.0805201,15.2841443 C47.9034226,15.136563 47.8148752,14.9354866 47.8148752,14.6809089 C47.8148752,14.5517753 47.8628384,14.2547725 47.9587662,13.7898915 L48.672687,10.3752472 L47.8812864,10.3752472 L48.0417803,9.6004495 L48.8331808,9.6004495 L49.1375656,8.15600516 L50.2831594,7.46422147 L49.8348836,9.6004495 L50.8199836,9.6004495 L50.6539555,10.3752472 L49.6743898,10.3752472 L48.9936746,13.6238634 C48.9088154,14.037091 48.8663864,14.2842859 48.8663864,14.3654555 C48.8663864,14.4835206 48.9005141,14.5739127 48.9687704,14.6366347 C49.0370267,14.6993568 49.1486334,14.7307173 49.3035937,14.7307173 C49.5249656,14.7307173 49.7223526,14.7085805 49.8957605,14.6643061 Z M50.7978465,13.4689039 L51.7995493,13.4080269 C51.7995493,13.6958104 51.843823,13.9411605 51.9323717,14.1440848 C52.0209205,14.347009 52.1841798,14.5130354 52.4221546,14.642169 C52.6601294,14.7713026 52.9377624,14.8358685 53.2550621,14.8358685 C53.6978059,14.8358685 54.0298588,14.747321 54.2512306,14.5702235 C54.4726025,14.393126 54.5832868,14.1846706 54.5832868,13.9448511 C54.5832868,13.7714431 54.5168762,13.6072614 54.3840531,13.4523011 C54.2475404,13.2973408 53.9145652,13.1064104 53.3851175,12.8795042 C52.8556697,12.652598 52.5171603,12.4930282 52.369579,12.4007899 C52.1223804,12.2495191 51.9360619,12.0715019 51.8106178,11.8667329 C51.6851737,11.6619639 51.6224526,11.4267598 51.6224526,11.1611135 C51.6224526,10.6962325 51.8069264,10.2977691 52.1758796,9.96571129 C52.5448327,9.63365345 53.0613594,9.46762703 53.725475,9.46762703 C54.4633813,9.46762703 55.0251041,9.6382653 55.4106601,9.97954696 C55.7962161,10.3208286 55.9963702,10.7700223 56.0111283,11.3271416 L55.0315626,11.3935528 C55.0168045,11.0393578 54.8913623,10.7589576 54.6552323,10.5523439 C54.4191023,10.3457301 54.0852047,10.2424248 53.6535295,10.2424248 C53.3067136,10.2424248 53.0373818,10.3217485 52.8455262,10.4803983 C52.6536706,10.6390482 52.5577442,10.8106088 52.5577442,10.9950854 C52.5577442,11.179562 52.6407574,11.3418989 52.8067863,11.4821011 C52.9174722,11.5780289 53.2034066,11.725608 53.6645981,11.9248427 C54.4320206,12.2569005 54.915342,12.5188533 55.1145767,12.710709 C55.4318764,13.0169401 55.5905239,13.3895772 55.5905239,13.8286314 C55.5905239,14.1201044 55.5010541,14.4060388 55.3221118,14.6864432 C55.1431695,14.9668476 54.8701483,15.1909832 54.5030399,15.3588569 C54.1359315,15.5267306 53.7033405,15.6106662 53.2052537,15.6106662 C52.5263799,15.6106662 51.9489769,15.442795 51.4730274,15.1070477 C50.9970778,14.7713003 50.7720198,14.2252578 50.7978465,13.4689039 Z M60.4274754,13.3360814 L61.4291782,13.4412325 C61.1782901,14.1754493 60.8213332,14.7205694 60.358297,15.0766092 C59.8952608,15.432649 59.3685881,15.6106662 58.7782631,15.6106662 C58.1399742,15.6106662 57.6225251,15.4040555 57.2259005,14.990828 C56.8292759,14.5776005 56.6309665,14.0001975 56.6309665,13.2586016 C56.6309665,12.6166232 56.7582535,11.9857228 57.0128311,11.3658815 C57.2674088,10.7460402 57.6317446,10.2747096 58.1058494,9.95187561 C58.5799541,9.62904161 59.1213848,9.46762703 59.7301575,9.46762703 C60.3610673,9.46762703 60.8609913,9.64564425 61.2299445,10.001684 C61.5988976,10.3577238 61.7833714,10.8290544 61.7833714,11.4156899 L60.7982715,11.4821011 C60.7945819,11.1094585 60.6866648,10.8179898 60.4745167,10.6076865 C60.2623686,10.3973833 59.9828908,10.2922332 59.6360749,10.2922332 C59.2339159,10.2922332 58.8852605,10.4195201 58.5900979,10.6740978 C58.2949354,10.9286755 58.0634208,11.3151481 57.8955471,11.8335272 C57.7276734,12.3519064 57.6437379,12.8509081 57.6437379,13.3305471 C57.6437379,13.8323234 57.7544221,14.20865 57.975794,14.4595381 C58.1971659,14.7104263 58.4701871,14.8358685 58.7948659,14.8358685 C59.1195447,14.8358685 59.430383,14.712271 59.7273903,14.4650724 C60.0243976,14.2178738 60.257757,13.8415472 60.4274754,13.3360814 Z M62.0379478,15.4778437 L63.7314343,7.36460462 L64.7331371,7.36460462 L64.0856276,10.4803983 C64.4582702,10.1188243 64.805081,9.85963857 65.1260702,9.70283348 C65.4470595,9.5460284 65.7772676,9.46762703 66.1167045,9.46762703 C66.6037226,9.46762703 66.9818939,9.59583632 67.2512297,9.85225876 C67.5205655,10.1086812 67.6552314,10.4471906 67.6552314,10.8677972 C67.6552314,11.074411 67.5961998,11.454427 67.4781348,12.0078567 L66.7531455,15.4778437 L65.7514427,15.4778437 L66.4985691,11.9193084 C66.6055655,11.402774 66.6590629,11.0781001 66.6590629,10.945277 C66.6590629,10.7534214 66.5926523,10.5966186 66.4598292,10.4748641 C66.327006,10.3531095 66.1351533,10.2922332 65.8842651,10.2922332 C65.5226911,10.2922332 65.1777251,10.3872372 64.8493568,10.5772481 C64.5209885,10.7672589 64.2636475,11.027367 64.0773262,11.3575801 C63.8910048,11.6877931 63.7203665,12.2200001 63.5654062,12.9542168 L63.0396506,15.4778437 L62.0379478,15.4778437 Z M68.3414808,15.4778437 L69.5700886,9.6004495 L70.4555718,9.6004495 L70.2065296,10.801386 C70.5090712,10.3475736 70.8051517,10.0118313 71.0947799,9.79414893 C71.3844081,9.57646658 71.6804886,9.46762703 71.9830301,9.46762703 C72.1822648,9.46762703 72.427615,9.53957181 72.719088,9.68346354 L72.309552,10.6132208 C72.1361441,10.4877767 71.946136,10.4250557 71.7395223,10.4250557 C71.3890168,10.4250557 71.0292929,10.6205979 70.6603397,11.0116882 C70.2913866,11.4027786 70.0017627,12.1056238 69.7914594,13.1202449 L69.2933752,15.4778437 L68.3414808,15.4778437 Z M73.5381599,8.49912987 L73.7761335,7.36460462 L74.772302,7.36460462 L74.5343284,8.49912987 L73.5381599,8.49912987 Z M72.0771127,15.4778437 L73.3057206,9.6004495 L74.3074233,9.6004495 L73.0788155,15.4778437 L72.0771127,15.4778437 Z M74.772302,15.4778437 L75.840416,10.3752472 L74.9438643,10.3752472 L75.1043581,9.6004495 L76.0009098,9.6004495 L76.1724722,8.7647748 C76.2610209,8.34785775 76.3523355,8.04716545 76.4464185,7.86268887 C76.5405016,7.6782123 76.6936148,7.52602141 76.9057629,7.40611164 C77.1179109,7.28620187 77.4066124,7.22624788 77.7718761,7.22624788 C78.0264537,7.22624788 78.3954013,7.27974528 78.87873,7.3867417 L78.6960991,8.26115628 C78.3566622,8.17260752 78.0725725,8.12833381 77.8438216,8.12833381 C77.6482764,8.12833381 77.499775,8.17721937 77.3983129,8.27499195 C77.2968507,8.37276453 77.2092257,8.60427916 77.1354351,8.96954277 L77.0026126,9.6004495 L78.120535,9.6004495 L77.9600412,10.3752472 L76.8421188,10.3752472 L75.7740048,15.4778437 L74.772302,15.4778437 Z M80.1239406,14.6643061 L79.9579125,15.483378 C79.718093,15.5461 79.485656,15.5774606 79.2605945,15.5774606 C78.8621252,15.5774606 78.5448302,15.4796894 78.3087002,15.2841443 C78.1316027,15.136563 78.0430553,14.9354866 78.0430553,14.6809089 C78.0430553,14.5517753 78.0910184,14.2547725 78.1869463,13.7898915 L78.900867,10.3752472 L78.1094665,10.3752472 L78.2699603,9.6004495 L79.0613608,9.6004495 L79.3657457,8.15600516 L80.5113395,7.46422147 L80.0630636,9.6004495 L81.0481636,9.6004495 L80.8821355,10.3752472 L79.9025698,10.3752472 L79.2218547,13.6238634 C79.1369954,14.037091 79.0945665,14.2842859 79.0945665,14.3654555 C79.0945665,14.4835206 79.1286941,14.5739127 79.1969504,14.6366347 C79.2652068,14.6993568 79.3768134,14.7307173 79.5317738,14.7307173 C79.7531456,14.7307173 79.9505326,14.7085805 80.1239406,14.6643061 Z"/>
  </g>
</svg>
