<svg xmlns="http://www.w3.org/2000/svg" width="32" height="25" viewBox="0 0 32 25">
  <g fill="none" transform="translate(0 -1)">
    <path fill="#231F20" d="M29.2216433,0.356803845 L29.2216433,0.293373386 L29.280335,0.293373386 C29.293309,0.293373386 29.3044295,0.296452535 29.312461,0.301379172 C29.3198747,0.30630581 29.3241994,0.314927426 29.3241994,0.32539653 C29.3241994,0.335865635 29.3198747,0.343871421 29.312461,0.348798059 C29.3044295,0.354340526 29.293309,0.356803845 29.280335,0.356803845 L29.2216433,0.356803845 Z M29.2809528,0.401143583 C29.3112254,0.401143583 29.3347021,0.394369456 29.3513829,0.380821203 C29.3680637,0.36727295 29.3760952,0.348798059 29.3760952,0.32539653 C29.3760952,0.30568998 29.3699171,0.289678408 29.3563254,0.276745985 C29.3433514,0.264429391 29.3248172,0.256423605 29.3001049,0.253344456 L29.3779486,0.164049151 L29.3174035,0.164049151 L29.24512,0.252728627 L29.2216433,0.252728627 L29.2216433,0.164049151 L29.170983,0.164049151 L29.170983,0.401143583 L29.2809528,0.401143583 Z M29.2655076,0.0821438013 C29.293309,0.0821438013 29.3192569,0.0876862686 29.3427336,0.0981553734 C29.3668281,0.108624478 29.3878336,0.122788561 29.40575,0.140647622 C29.4236664,0.158506683 29.437876,0.179444893 29.4483787,0.204078081 C29.4582637,0.228095439 29.4638239,0.253960286 29.4638239,0.281672622 C29.4638239,0.309384958 29.4582637,0.335249806 29.4483787,0.359267164 C29.437876,0.383284522 29.4236664,0.404838561 29.40575,0.422697622 C29.3878336,0.440556683 29.3668281,0.454720766 29.3427336,0.465189871 C29.3192569,0.475043146 29.293309,0.479969784 29.2655076,0.479969784 C29.2377063,0.479969784 29.2111405,0.475043146 29.187046,0.465189871 C29.1623337,0.454720766 29.1407104,0.440556683 29.122794,0.422697622 C29.1048776,0.404838561 29.090668,0.383284522 29.0807831,0.359267164 C29.0702803,0.335249806 29.0653379,0.309384958 29.0653379,0.281672622 C29.0653379,0.253960286 29.0702803,0.228095439 29.0807831,0.204078081 C29.090668,0.179444893 29.1048776,0.158506683 29.122794,0.140647622 C29.1407104,0.122788561 29.1623337,0.108624478 29.187046,0.0981553734 C29.2111405,0.0876862686 29.2377063,0.0821438013 29.2655076,0.0821438013 Z M29.2655076,0.537241945 C29.3019583,0.537241945 29.3353199,0.530467819 29.3674459,0.516919565 C29.3989541,0.503987142 29.4261377,0.485512251 29.4502322,0.462110723 C29.4737089,0.439325024 29.4922431,0.412228517 29.5058349,0.380821203 C29.5194266,0.350029718 29.5262225,0.316774915 29.5262225,0.281672622 C29.5262225,0.24657033 29.5194266,0.213315526 29.5058349,0.182524041 C29.4922431,0.151732557 29.4737089,0.12463605 29.4502322,0.101234522 C29.4261377,0.0784488231 29.3989541,0.0599739323 29.3674459,0.0464256791 C29.3353199,0.0328774258 29.3019583,0.0261032992 29.2655076,0.0261032992 C29.2284392,0.0261032992 29.1944597,0.0328774258 29.1623337,0.0464256791 C29.1302077,0.0599739323 29.1024064,0.0784488231 29.0789297,0.101234522 C29.055453,0.12463605 29.0369187,0.151732557 29.023327,0.182524041 C29.0097352,0.213315526 29.0029393,0.24657033 29.0029393,0.281672622 C29.0029393,0.316774915 29.0097352,0.350029718 29.023327,0.380821203 C29.0369187,0.412228517 29.055453,0.439325024 29.0789297,0.462110723 C29.1024064,0.485512251 29.1302077,0.503987142 29.1623337,0.516919565 C29.1944597,0.530467819 29.2284392,0.537241945 29.2655076,0.537241945 Z M5.19509675,1.45051738 C5.19509675,1.90253638 5.49226232,2.27388168 5.97785927,2.27388168 C6.44183295,2.27388168 6.75506152,1.91854795 6.75506152,1.45051738 C6.75506152,0.982486814 6.44183295,0.627153081 5.97785927,0.627153081 C5.49226232,0.627153081 5.19509675,0.998498386 5.19509675,1.45051738 Z M7.28390503,1.45051738 L7.28390503,2.73636978 L6.72293552,2.73636978 L6.72293552,2.42414413 C6.54500686,2.65569609 6.27502484,2.8010319 5.90804699,2.8010319 C5.18459402,2.8010319 4.61744643,2.23570024 4.61744643,1.45051738 C4.61744643,0.664718692 5.18459402,0.100002862 5.90804699,0.100002862 C6.27502484,0.100002862 6.54500686,0.24533867 6.72293552,0.476890635 L6.72293552,0.16466498 L7.28390503,0.16466498 L7.28390503,1.45051738 Z M26.2407205,1.45051738 C26.2407205,1.90253638 26.5378861,2.27388168 27.023483,2.27388168 C27.4880745,2.27388168 27.8006853,1.91854795 27.8006853,1.45051738 C27.8006853,0.982486814 27.4880745,0.627153081 27.023483,0.627153081 C26.5378861,0.627153081 26.2407205,0.998498386 26.2407205,1.45051738 Z M28.3301466,1.45051738 L28.3301466,3.76911618 L27.7685592,3.76911618 L27.7685592,2.42414413 C27.5906306,2.65569609 27.3206486,2.8010319 26.9536707,2.8010319 C26.2302178,2.8010319 25.6630702,2.23570024 25.6630702,1.45051738 C25.6630702,0.664718692 26.2302178,0.100002862 26.9536707,0.100002862 C27.3206486,0.100002862 27.5906306,0.24533867 27.7685592,0.476890635 L27.7685592,0.16466498 L28.3301466,0.16466498 L28.3301466,1.45051738 Z M14.2472171,2.30036236 C14.6086347,2.30036236 14.8409304,2.07435286 14.90024,1.67652688 L13.5614504,1.67652688 C13.6213777,2.04787218 13.8474954,2.30036236 14.2472171,2.30036236 Z M14.2583376,2.8010319 C13.5021408,2.8010319 12.9732973,2.25232764 12.9732973,1.45051738 C12.9732973,0.632695548 13.5237641,0.100002862 14.2960239,0.100002862 C14.684625,0.100002862 15.0404823,0.196688124 15.3537109,0.460263233 L15.0787864,0.874716618 C14.8625537,0.702900133 14.5870114,0.605599041 14.3281499,0.605599041 C13.9667323,0.605599041 13.6374408,0.772488888 13.5565079,1.23559282 L15.47233,1.23559282 C15.4778903,1.30518157 15.4834505,1.37538616 15.4834505,1.45051738 C15.4778903,2.25232764 14.9811728,2.8010319 14.2583376,2.8010319 Z M21.0319827,1.45051738 C21.0319827,1.90253638 21.3291482,2.27388168 21.8147452,2.27388168 C22.2787189,2.27388168 22.5919474,1.91854795 22.5919474,1.45051738 C22.5919474,0.982486814 22.2787189,0.627153081 21.8147452,0.627153081 C21.3291482,0.627153081 21.0319827,0.998498386 21.0319827,1.45051738 Z M23.1207909,1.45051738 L23.1207909,2.73636978 L22.5598214,2.73636978 L22.5598214,2.42414413 C22.381275,2.65569609 22.1119108,2.8010319 21.7449329,2.8010319 C21.0214799,2.8010319 20.4543323,2.23570024 20.4543323,1.45051738 C20.4543323,0.664718692 21.0214799,0.100002862 21.7449329,0.100002862 C22.1119108,0.100002862 22.381275,0.24533867 22.5598214,0.476890635 L22.5598214,0.16466498 L23.1207909,0.16466498 L23.1207909,1.45051738 Z M17.8638641,1.45051738 C17.8638641,0.670261159 18.4087706,0.100002862 19.24034,0.100002862 C19.6289411,0.100002862 19.8878026,0.18621902 20.1682873,0.40668605 L19.8989231,0.858705045 C19.6882506,0.70782677 19.4670754,0.627153081 19.2236592,0.627153081 C18.7757485,0.632695548 18.4464569,0.955390307 18.4464569,1.45051738 C18.4464569,1.94564446 18.7757485,2.26833922 19.2236592,2.27388168 C19.4670754,2.27388168 19.6882506,2.19320799 19.8989231,2.04232972 L20.1682873,2.49434871 C19.8878026,2.71481574 19.6289411,2.8010319 19.24034,2.8010319 C18.4087706,2.8010319 17.8638641,2.2307736 17.8638641,1.45051738 Z M25.0965404,2.8010319 C24.7728091,2.8010319 24.5621366,2.65015363 24.416334,2.42414413 L24.416334,2.73636978 L23.8603069,2.73636978 L23.8603069,0.16466498 L24.4218942,0.16466498 L24.4218942,1.60632229 C24.4218942,2.03186061 24.6053832,2.26833922 24.972361,2.26833922 C25.0860377,2.26833922 25.2046568,2.25232764 25.3232759,2.2036771 L25.4962621,2.73082732 C25.3720827,2.77947786 25.210217,2.8010319 25.0965404,2.8010319 Z M10.05848,2.53191432 C9.78849797,2.70927328 9.41657766,2.8010319 9.00635326,2.8010319 C8.35271257,2.8010319 7.93198544,2.48880625 7.93198544,1.9776676 C7.93198544,1.55828758 8.24521401,1.29963911 8.82224652,1.21896542 L9.08728608,1.18139981 C9.39495438,1.13829173 9.54013922,1.05761804 9.54013922,0.912282229 C9.54013922,0.713369238 9.33502702,0.600056574 8.95198617,0.600056574 C8.56338504,0.600056574 8.28290029,0.723838342 8.09385109,0.86917415 L7.82942934,0.433782557 C8.13709764,0.207773059 8.52569876,0.100002862 8.9464259,0.100002862 C9.69150214,0.100002862 10.1233498,0.449794129 10.1233498,0.939378735 C10.1233498,1.39139773 9.78355551,1.62787633 9.22196819,1.70855002 L8.95754644,1.74673146 C8.71474796,1.77875461 8.52013849,1.82678932 8.52013849,1.99922164 C8.52013849,2.18766553 8.70362742,2.30036236 9.01129572,2.30036236 C9.34058729,2.30036236 9.65937613,2.17658059 9.81568151,2.07989533 L10.05848,2.53191432 Z M17.2967165,2.8010319 C16.9729852,2.8010319 16.7623128,2.65015363 16.6171279,2.42414413 L16.6171279,2.73636978 L16.0611009,2.73636978 L16.0611009,0.16466498 L16.6220704,0.16466498 L16.6220704,1.60632229 C16.6220704,2.03186061 16.8055593,2.26833922 17.1725372,2.26833922 C17.2862138,2.26833922 17.4048329,2.25232764 17.523452,2.2036771 L17.6964382,2.73082732 C17.5722588,2.77947786 17.4103932,2.8010319 17.2967165,2.8010319 Z M12.5093237,2.73636978 L11.591879,2.73636978 L11.591879,3.516626 L11.0247314,3.516626 L11.0247314,2.73636978 L10.5014482,2.73636978 L10.5014482,2.22523114 L11.0247314,2.22523114 L11.0247314,1.05207557 C11.0247314,0.455336596 11.2570272,0.100002862 11.9205528,0.100002862 C12.1639691,0.100002862 12.4444538,0.175134085 12.6223825,0.298915854 L12.4605168,0.778031356 C12.2930909,0.681346094 12.109602,0.632695548 11.9637993,0.632695548 C11.6833146,0.632695548 11.591879,0.805127862 11.591879,1.0631605 L11.591879,2.22523114 L12.5093237,2.22523114 L12.5093237,2.73636978 Z M4.12134674,0.16466498 L4.12134674,1.77875461 C4.12134674,2.38657852 3.73274562,2.79548943 3.10628848,2.8010319 C2.77699691,2.80657437 2.4372026,2.70434664 2.19934658,2.34347044 C2.02141793,2.62859959 1.74093317,2.8010319 1.34677178,2.8010319 C1.07122949,2.8010319 0.801865273,2.72035821 0.591192803,2.41921749 L0.591192803,2.73636978 L0.0296054849,2.73636978 L0.0296054849,0.16466498 L0.596135265,0.16466498 L0.596135265,1.59031072 C0.596135265,2.03678725 0.844494013,2.27388168 1.22815268,2.27388168 C1.6006908,2.27388168 1.78912219,2.03186061 1.78912219,1.59585319 L1.78912219,0.16466498 L2.35626977,0.16466498 L2.35626977,1.59031072 C2.35626977,2.03678725 2.61513125,2.27388168 2.98766938,2.27388168 C3.37071023,2.27388168 3.55419916,2.03186061 3.55419916,1.59585319 L3.55419916,0.16466498 L4.12134674,0.16466498 Z" transform="matrix(1 0 0 -1 1.75 25.788)"/>
    <path fill="#F79410" d="M0.889109596,0 L0.889109596,0.5 L0.790878151,0.5 L0.677201511,0.156557377 L0.564142678,0.5 L0.465293425,0.5 L0.465293425,0 L0.53510571,0 L0.53510571,0.37704918 L0.641368657,0.0516393443 L0.713652173,0.0516393443 L0.819915119,0.377868852 L0.819915119,0 L0.889109596,0 Z M0.265741496,0 L0.265741496,0.414754098 L0.391774293,0.414754098 L0.391774293,0.499180328 L0.0705142215,0.499180328 L0.0705142215,0.414754098 L0.196547019,0.414754098 L0.196547019,0 L0.265741496,0 Z" transform="matrix(1 0 0 -1 30.402 17.069)"/>
    <polygon fill="#FF5F00" points="20.125 18.682 11.623 18.682 11.623 3.451 20.125 3.451"/>
    <path fill="#EB001B" d="M12.0962771,9.76693315 C12.0962771,12.8565507 13.5475076,15.6086936 15.8074487,17.3822832 C14.1548127,18.6792205 12.0690935,19.4533184 9.80235658,19.4533184 C4.43607777,19.4533184 0.086092837,15.1166457 0.086092837,9.76693315 C0.086092837,4.4172206 4.43607777,0.0805478974 9.80235658,0.0805478974 C12.0690935,0.0805478974 14.1548127,0.854645823 15.8074487,2.15158316 C13.5475076,3.92517268 12.0962771,6.67731558 12.0962771,9.76693315" transform="matrix(1 0 0 -1 .066 20.833)"/>
    <path fill="#F79E1B" d="M15.803124,9.76693315 C15.803124,4.4172206 11.4531391,0.0805478974 6.08686029,0.0805478974 C3.82012336,0.0805478974 1.73440413,0.854645823 0.0811503743,2.15158316 C2.34170922,3.92517268 3.79293982,6.67731558 3.79293982,9.76693315 C3.79293982,12.8565507 2.34170922,15.6086936 0.0811503743,17.3822832 C1.73440413,18.6792205 3.82012336,19.4533184 6.08686029,19.4533184 C11.4531391,19.4533184 15.803124,15.1166457 15.803124,9.76693315" transform="matrix(1 0 0 -1 15.792 20.833)"/>
  </g>
</svg>
