<svg xmlns="http://www.w3.org/2000/svg" width="68" height="17" viewBox="0 0 68 17">
  <g fill="none" transform="translate(.457 .5)">
    <path fill="#253B80" d="M25.1497077 3.67305138L21.4276751 3.67305138C21.1729724 3.67305138 20.9563664 3.85809175 20.9166371 4.10952897L19.4112792 13.6538025C19.3813462 13.8421083 19.5272016 14.01191 19.7182286 14.01191L21.4951604 14.01191C21.749863 14.01191 21.9664691 13.8268697 22.0061983 13.5748882L22.4121987 11.0006501C22.4513837 10.7486687 22.668534 10.5636283 22.9226924 10.5636283L24.1009642 10.5636283C26.5527491 10.5636283 27.9677637 9.37719296 28.3373002 7.02609177 28.5038366 5.99748499 28.3443753 5.18929396 27.8627261 4.62328812 27.3337283 4.00177016 26.3954648 3.67305138 25.1497077 3.67305138zM25.5791102 7.15888545C25.3755658 8.49444154 24.3551226 8.49444154 23.368422 8.49444154L22.8067701 8.49444154 23.2007972 6.00020618C23.2241994 5.8494527 23.3548161 5.73842847 23.5072023 5.73842847L23.7646261 5.73842847C24.4367581 5.73842847 25.0707934 5.73842847 25.3984238 6.12157089 25.5938046 6.35015017 25.6536706 6.68975368 25.5791102 7.15888545zM36.2755322 7.11589077L34.493158 7.11589077C34.3413161 7.11589077 34.2101551 7.22691499 34.1867529 7.37766847L34.1078387 7.87618901 33.9832085 7.69550252C33.5973449 7.13548328 32.7369072 6.94826596 31.8781022 6.94826596 29.9085107 6.94826596 28.226276 8.4400179 27.8986457 10.5326068 27.7282997 11.5764522 27.9704849 12.5745817 28.5626141 13.2706601 29.105762 13.9106821 29.8829316 14.1773579 30.8075892 14.1773579 32.3945825 14.1773579 33.2746128 13.1569147 33.2746128 13.1569147L33.1951542 13.6521698C33.1652212 13.8415641 33.3110766 14.0113658 33.5010151 14.0113658L35.1065124 14.0113658C35.3617593 14.0113658 35.5772769 13.8263254 35.6175504 13.574344L36.5808488 7.47399832C36.6113261 7.28623676 36.4660149 7.11589077 36.2755322 7.11589077zM33.7910931 10.5848535C33.6191144 11.6031198 32.8109234 12.2866807 31.7801396 12.2866807 31.2625708 12.2866807 30.8489512 12.1206886 30.5833638 11.80612 30.3199534 11.4937283 30.2198139 11.0490871 30.3036263 10.553832 30.464176 9.54427353 31.285973 8.83839894 32.3009739 8.83839894 32.8071137 8.83839894 33.2185564 9.00656798 33.4895861 9.3238578 33.7611601 9.64441303 33.8689189 10.0917753 33.7910931 10.5848535zM45.7681033 7.11589077L43.9770213 7.11589077C43.8061311 7.11589077 43.6455814 7.20079165 43.5487073 7.34283735L41.0784183 10.9816018 40.0313075 7.48488304C39.9654549 7.26610001 39.7635432 7.11589077 39.5349639 7.11589077L37.7749034 7.11589077C37.5610185 7.11589077 37.412442 7.32487754 37.4804716 7.52624501L39.4533285 13.3158317 37.5985709 15.934153C37.4527155 16.1404186 37.5996593 16.4239657 37.8516408 16.4239657L39.6405458 16.4239657C39.8103475 16.4239657 39.9692646 16.3412418 40.0655944 16.2019173L46.0228059 7.60298234C46.1653958 7.39726098 46.0189963 7.11589077 45.7681033 7.11589077z"/>
    <path fill="#179BD7" d="M51.698103 3.67305138L47.9755261 3.67305138C47.7213677 3.67305138 47.5047616 3.85809175 47.4650323 4.10952897L45.9596745 13.6538025C45.9297415 13.8421083 46.0755968 14.01191 46.2655353 14.01191L48.1758051 14.01191C48.3532261 14.01191 48.5050681 13.8823818 48.5328241 13.7060492L48.9600497 11.0006501C48.9992347 10.7486687 49.216385 10.5636283 49.4705434 10.5636283L50.648271 10.5636283C53.1006001 10.5636283 54.5150705 9.37719296 54.8851512 7.02609177 55.0522318 5.99748499 54.8916821 5.18929396 54.4100329 4.62328812 53.8815793 4.00177016 52.9438601 3.67305138 51.698103 3.67305138zM52.1275055 7.15888545C51.9245053 8.49444154 50.9040621 8.49444154 49.9168173 8.49444154L49.3557095 8.49444154 49.7502809 6.00020618C49.7736831 5.8494527 49.9032114 5.73842847 50.0561418 5.73842847L50.3135656 5.73842847C50.9851533 5.73842847 51.6197329 5.73842847 51.9473632 6.12157089 52.1427441 6.35015017 52.2020659 6.68975368 52.1275055 7.15888545zM62.8233832 7.11589077L61.0420975 7.11589077C60.8891671 7.11589077 60.7590946 7.22691499 60.7362367 7.37766847L60.6573224 7.87618901 60.532148 7.69550252C60.1462844 7.13548328 59.2863909 6.94826596 58.4275859 6.94826596 56.4579944 6.94826596 54.776304 8.4400179 54.4486737 10.5326068 54.2788719 11.5764522 54.5199686 12.5745817 55.1120978 13.2706601 55.6563342 13.9106821 56.4324153 14.1773579 57.3570729 14.1773579 58.9440662 14.1773579 59.8240965 13.1569147 59.8240965 13.1569147L59.744638 13.6521698C59.714705 13.8415641 59.8605603 14.0113658 60.0515873 14.0113658L61.6565404 14.0113658C61.9106988 14.0113658 62.1273049 13.8263254 62.1670341 13.574344L63.1308768 7.47399832C63.1602655 7.28623676 63.0144102 7.11589077 62.8233832 7.11589077zM60.3389441 10.5848535C60.1680539 11.6031198 59.3587744 12.2866807 58.3279906 12.2866807 57.8115103 12.2866807 57.3968022 12.1206886 57.1312148 11.80612 56.8678044 11.4937283 56.7687534 11.0490871 56.8514773 10.553832 57.0131155 9.54427353 57.833824 8.83839894 58.8488249 8.83839894 59.3549647 8.83839894 59.7664074 9.00656798 60.0374371 9.3238578 60.3100996 9.64441303 60.4178584 10.0917753 60.3389441 10.5848535zM64.9246799 3.93482908L63.3970084 13.6538025C63.3670754 13.8421083 63.5129307 14.01191 63.7028692 14.01191L65.2387043 14.01191C65.4939512 14.01191 65.7105572 13.8268697 65.7497423 13.5748882L67.2561886 4.03115893C67.2861216 3.84285313 67.1402662 3.67250715 66.9503277 3.67250715L65.2305407 3.67250715C65.0786988 3.67305138 64.9480821 3.78407561 64.9246799 3.93482908z"/>
    <path fill="#253B80" d="M3.95442159,15.8666677 L4.23905723,14.0587144 L3.60502183,14.04402 L0.577434808,14.04402 L2.68145268,0.703153413 C2.68798352,0.66287992 2.70920874,0.62532761 2.74023021,0.598660027 C2.77125169,0.571992444 2.81098094,0.557298061 2.85234291,0.557298061 L7.95728023,0.557298061 C9.65203234,0.557298061 10.8215963,0.909963241 11.4322296,1.60604158 C11.7184979,1.93258341 11.9008171,2.27381963 11.9889834,2.64934274 C12.0815036,3.04336988 12.0831363,3.51413436 11.992793,4.08830375 L11.9862622,4.13020995 L11.9862622,4.49811375 L12.2725305,4.66029619 C12.5136273,4.78819174 12.7051985,4.93459133 12.8521423,5.10221614 C13.0970487,5.3814094 13.2554215,5.73625153 13.3223625,6.15694626 C13.3914806,6.58961418 13.3686226,7.10446181 13.2554215,7.68733898 C13.1248047,8.35783821 12.913641,8.94180385 12.6284611,9.4196434 C12.3661392,9.85993064 12.0319781,10.2251133 11.6352297,10.5081162 C11.2564412,10.776969 10.8063577,10.9810576 10.2974967,11.1116743 C9.80441853,11.2401141 9.24222234,11.3048782 8.62560251,11.3048782 L8.22830995,11.3048782 C7.94421855,11.3048782 7.66829071,11.4071947 7.45168462,11.5906024 C7.2345343,11.7778197 7.0908559,12.0336108 7.04677275,12.3133483 L7.01683975,12.476075 L6.51396533,15.662579 L6.4911074,15.7795898 C6.4851208,15.8165979 6.47478031,15.8351019 6.45954169,15.8476194 C6.44593578,15.8590483 6.42634327,15.8666677 6.40729499,15.8666677 L3.95442159,15.8666677 Z"/>
    <path fill="#179BD7" d="M12.5435603,4.17266039 C12.5283216,4.2700787 12.5109061,4.36967396 12.4913136,4.4719904 C11.8180932,7.9284357 9.51488477,9.12249033 6.57328709,9.12249033 L5.07554855,9.12249033 C4.7158083,9.12249033 4.41266863,9.3837238 4.35661229,9.73856593 L3.58978321,14.6018623 L3.3726329,15.9804131 C3.33616906,16.2133462 3.51576707,16.4234215 3.75087719,16.4234215 L6.40729499,16.4234215 C6.72186363,16.4234215 6.98908369,16.1948422 7.0386092,15.8846275 L7.06473255,15.7496568 L7.56488579,12.5756702 L7.59699574,12.4015146 C7.64597701,12.0902114 7.91374132,11.8616321 8.22830995,11.8616321 L8.62560251,11.8616321 C11.1992964,11.8616321 13.2140595,10.8166982 13.8029233,7.79292084 C14.0489181,6.52974818 13.9215668,5.47501806 13.2706601,4.73322387 C13.0736465,4.50954271 12.8292844,4.3239581 12.5435603,4.17266039 Z"/>
    <path fill="#222D65" d="M11.8393184,3.89183441 C11.7364577,3.86190141 11.6303316,3.83468959 11.5214843,3.81019895 C11.4120928,3.78625255 11.2999801,3.76502733 11.184602,3.74652329 C10.7807786,3.68121493 10.3383144,3.65019345 9.86428453,3.65019345 L5.86305861,3.65019345 C5.76455182,3.65019345 5.67094316,3.67250715 5.58713076,3.71278064 C5.40263462,3.80149117 5.26548705,3.97619105 5.23228863,4.19007595 L4.38110292,9.58128161 L4.35661229,9.73856593 C4.41266863,9.3837238 4.7158083,9.12249033 5.07554855,9.12249033 L6.57328709,9.12249033 C9.51488477,9.12249033 11.8180932,7.92789146 12.4913136,4.4719904 C12.5114503,4.36967396 12.5283216,4.2700787 12.5435603,4.17266039 C12.3732143,4.08231715 12.1887181,4.00503558 11.9900719,3.93918298 C11.9410906,3.92285588 11.8904766,3.90707303 11.8393184,3.89183441 Z"/>
    <path fill="#253B80" d="M5.23228863,4.19007595 C5.26548705,3.97619105 5.40263462,3.80149117 5.58713076,3.71332487 C5.6714874,3.67305138 5.76455182,3.65073769 5.86305861,3.65073769 L9.86428453,3.65073769 C10.3383144,3.65073769 10.7807786,3.68175916 11.184602,3.74706753 C11.2999801,3.76557157 11.4120928,3.78679679 11.5214843,3.81074319 C11.6303316,3.83523383 11.7364577,3.86244564 11.8393184,3.89237865 C11.8904766,3.90761727 11.9410906,3.92340012 11.9906161,3.93918298 C12.1892624,4.00503558 12.3737585,4.08286138 12.5441045,4.17266039 C12.7443835,2.89533758 12.5424718,2.02564784 11.8518358,1.23813778 C11.0904491,0.371169217 9.71625223,0 7.95782446,0 L2.85288715,0 C2.49369113,0 2.18728604,0.261233466 2.13177393,0.616619827 L0.00544236388,14.094634 C-0.036463838,14.3613098 0.169257517,14.6018623 0.438110292,14.6018623 L3.58978321,14.6018623 L4.38110292,9.58128161 L5.23228863,4.19007595 Z"/>
  </g>
</svg>
