<svg xmlns="http://www.w3.org/2000/svg" width="71" height="11" viewBox="0 0 71 11">
  <g fill="#D50029">
    <path d="M12.4844797,0.0605892857 L10.2163616,3.24631696 C10.2163616,3.24631696 21.9745626,3.24631696 22.5777496,3.24631696 C23.2025996,3.24631696 23.1943351,3.49178125 22.8889224,3.91953125 C22.5787513,4.35388393 22.0597125,5.10904911 21.7437813,5.55000446 C21.5834991,5.77384821 21.2936138,6.18166071 22.2541799,6.18166071 C23.2697178,6.18166071 27.3092046,6.18166071 27.3092046,6.18166071 C27.3092046,6.18166071 28.1240141,5.03525446 28.8068413,4.07695982 C29.7361023,2.77338393 28.8874832,0.0605892857 25.5657601,0.0605892857 C22.5926508,0.0605892857 12.4844797,0.0605892857 12.4844797,0.0605892857 Z"/>
    <path d="M9.29862081 10.4396116L13.8542663 4.03993304C13.8542663 4.03993304 18.9045326 4.03993304 19.5074691 4.03993304 20.1323192 4.03993304 20.1241799 4.28539732 19.8187672 4.71314732 19.5085961 5.1475 18.9810423 5.89450893 18.6651111 6.33559375 18.5047037 6.5594375 18.2149436 6.96789732 19.1753845 6.96789732 20.1909224 6.96789732 26.748843 6.96789732 26.748843 6.96789732 26.1191093 7.86003571 24.0758871 10.4396116 20.4074286 10.4396116 17.4343192 10.4396116 9.29862081 10.4396116 9.29862081 10.4396116zM35.3889295 6.96699107L32.918455 10.4394821 26.4017319 10.4394821C26.4017319 10.4394821 28.8708289 6.96776786 28.8729577 6.96776786L35.3889295 6.96699107z"/>
    <polygon points="45.372 6.182 29.433 6.182 33.792 .061 40.306 .061 37.808 3.57 40.716 3.57 43.215 .061 49.73 .061"/>
    <path d="M44.8127707,6.96789732 L42.3411693,10.4396116 L35.8270758,10.4396116 C35.8270758,10.4396116 38.2960476,6.96789732 38.2981764,6.96789732 L44.8127707,6.96789732 Z"/>
    <polygon points="0 8.337 9.6 8.337 9.076 9.074 0 9.074"/>
    <polygon points="0 6.968 10.576 6.968 10.05 7.704 0 7.704"/>
    <polygon points="0 9.707 8.626 9.707 8.104 10.44 0 10.44"/>
    <polygon points="70.991 9.074 61.428 9.074 61.953 8.337 70.991 8.337"/>
    <polygon points="70.991 10.44 60.456 10.441 60.977 9.707 70.991 9.707"/>
    <polygon points="62.927 6.968 70.991 6.968 70.991 7.705 62.402 7.705"/>
    <path d="M58.7519365.0605892857L54.3938889 6.18166071 47.4906102 6.18166071C47.4906102 6.18166071 51.8499101.0605892857 51.8520388.0605892857L58.7519365.0605892857zM46.9320018 6.96789732C46.9320018 6.96789732 46.4557884 7.64085268 46.2245062 7.964125 45.4061905 9.10755357 46.1295891 10.4396116 48.8000406 10.4396116 51.8840952 10.4396116 59.2625855 10.4396116 59.2625855 10.4396116L61.7336861 6.96789732 46.9320018 6.96789732z"/>
  </g>
</svg>
